<?xml version="1.0" standalone="no"?>
<!DOCTYPE svg PUBLIC "-//W3C//DTD SVG 20010904//EN"
 "http://www.w3.org/TR/2001/REC-SVG-20010904/DTD/svg10.dtd">
<svg version="1.0" xmlns="http://www.w3.org/2000/svg"
 width="1024.000000pt" height="1024.000000pt" viewBox="0 0 1024.000000 1024.000000"
 preserveAspectRatio="xMidYMid meet">
<metadata>
Created by potrace 1.16, written by Peter Selinger 2001-2019
</metadata>
<g transform="translate(0.000000,1024.000000) scale(0.100000,-0.100000)"
fill="#00dde6" stroke="none">
<path d="M5047 8752 c-37 -93 -67 -182 -67 -198 1 -71 75 -144 145 -144 70 1
145 75 145 145 0 38 -130 365 -145 365 -6 0 -41 -76 -78 -168z"/>
<path d="M4406 8519 c-76 -191 -78 -213 -25 -274 59 -67 148 -68 208 0 54 62
52 86 -22 273 -36 92 -72 168 -79 170 -9 2 -37 -55 -82 -169z"/>
<path d="M5690 8538 c-70 -172 -79 -211 -57 -254 53 -102 171 -118 240 -32 46
57 42 95 -32 281 -35 87 -68 157 -76 157 -7 0 -40 -69 -75 -152z"/>
<path d="M4027 8288 c-3 -7 -32 -81 -66 -165 -34 -84 -61 -167 -61 -185 0 -42
31 -92 72 -119 87 -54 211 20 210 125 -1 37 -122 348 -138 353 -6 2 -14 -2
-17 -9z"/>
<path d="M6170 8223 c-113 -271 -121 -315 -64 -374 97 -101 257 -26 245 116
-2 30 -127 329 -139 333 -5 1 -24 -32 -42 -75z"/>
<path d="M5065 8138 c-76 -27 -119 -84 -130 -174 -8 -62 12 -138 102 -389 85
-235 90 -238 146 -90 20 55 60 167 88 248 47 136 51 155 47 222 -3 64 -7 79
-34 112 -55 70 -143 98 -219 71z"/>
<path d="M4289 7707 c-74 -31 -120 -67 -163 -130 -110 -162 -50 -370 132 -459
l67 -33 362 -3 363 -3 -6 33 c-59 348 -328 618 -614 618 -66 0 -98 -6 -141
-23z"/>
<path d="M5693 7715 c-186 -61 -357 -229 -441 -435 -23 -58 -52 -166 -52 -197
0 -2 165 -3 368 -1 l367 3 57 28 c33 16 76 49 102 78 149 166 95 410 -112 510
-59 28 -222 36 -289 14z"/>
<path d="M3710 7386 c-5 -14 -34 -86 -64 -158 -55 -135 -59 -150 -57 -202 1
-34 64 -101 104 -111 48 -13 99 4 138 45 59 62 58 77 -19 272 -38 94 -74 174
-80 176 -7 2 -16 -8 -22 -22z"/>
<path d="M6437 7241 c-37 -93 -67 -182 -67 -197 0 -64 72 -134 138 -134 54 0
111 35 133 83 10 23 19 49 19 57 1 28 -133 360 -145 360 -6 0 -42 -76 -78
-169z"/>
<path d="M5100 6940 c-6 -12 -10 -28 -9 -38 1 -9 1 -129 0 -265 l-1 -249 -95
90 c-105 99 -232 190 -343 246 -156 79 -378 136 -524 136 -80 0 -80 3 -25 -88
37 -63 149 -172 233 -229 188 -128 459 -213 680 -213 l71 0 7 -37 c3 -21 6
-94 6 -162 l0 -124 101 7 c226 14 408 74 594 193 223 144 362 400 299 551 -60
144 -258 178 -367 64 -15 -16 -61 -93 -103 -173 -88 -168 -181 -312 -250 -388
-51 -56 -188 -171 -205 -171 -5 0 -9 166 -9 419 0 231 -3 426 -6 435 -9 23
-41 20 -54 -4z"/>
<path d="M3863 6648 c-18 -23 -133 -325 -133 -349 0 -33 36 -101 65 -122 67
-48 171 -19 206 57 10 23 19 50 19 61 1 23 -132 365 -141 365 -4 0 -11 -6 -16
-12z"/>
<path d="M6362 6648 c-20 -25 -125 -303 -129 -343 -5 -48 19 -99 60 -129 39
-29 115 -29 153 0 88 65 88 109 5 314 -34 85 -66 159 -70 163 -4 4 -13 2 -19
-5z"/>
<path d="M4580 5962 c0 -45 28 -138 61 -205 119 -239 342 -406 722 -543 241
-87 346 -154 395 -250 31 -62 35 -98 17 -160 -32 -111 -177 -218 -350 -259
-94 -23 -300 -23 -425 -1 -114 20 -272 72 -369 120 -79 40 -189 121 -365 270
-790 666 -831 698 -944 737 -83 29 -237 22 -257 -12 -7 -10 36 -60 286 -334
80 -88 170 -187 200 -220 153 -171 585 -618 876 -906 325 -324 329 -327 393
-347 99 -32 171 -42 335 -49 230 -9 618 22 1035 83 172 25 398 30 515 10 113
-19 277 -72 379 -122 39 -19 73 -34 76 -34 7 0 20 28 209 428 l101 213 -47 62
c-187 243 -418 480 -612 625 -260 195 -413 265 -1069 487 -406 136 -605 209
-922 338 -74 31 -159 65 -187 76 l-53 21 0 -28z"/>
<path d="M4100 5902 c0 -33 332 -857 400 -993 36 -70 94 -118 212 -174 117
-55 250 -90 401 -105 153 -15 258 -3 382 42 l60 22 -120 17 c-194 28 -321 81
-468 198 -126 100 -194 189 -362 470 -183 307 -304 461 -397 503 -41 19 -108
32 -108 20z"/>
<path d="M3610 5846 c0 -19 178 -348 208 -385 55 -67 572 -515 550 -476 -39
68 -283 469 -334 547 -84 130 -200 248 -279 284 -54 25 -145 44 -145 30z"/>
<path d="M2887 5096 c-45 -12 -76 -31 -66 -39 5 -4 348 -225 589 -379 91 -58
368 -234 615 -390 248 -156 464 -292 480 -303 17 -11 -24 37 -90 106 -124 128
-377 400 -644 689 -95 103 -167 173 -194 187 -53 28 -226 86 -337 113 -109 27
-288 35 -353 16z"/>
<path d="M2681 3131 l-53 -6 -64 -145 c-35 -80 -64 -149 -64 -154 0 -16 478
-1277 546 -1443 30 -73 1 -65 254 -63 151 1 165 6 149 44 -9 22 -140 365 -459
1208 -104 274 -196 510 -204 526 -12 24 -42 48 -49 40 -1 -1 -26 -4 -56 -7z"/>
<path d="M3648 3134 c-9 -3 -19 -17 -23 -32 -10 -40 -4 -1744 7 -1765 8 -16
43 -17 561 -15 l552 3 3 74 c2 53 -1 77 -10 82 -7 5 -174 9 -370 9 l-358 0 0
808 c0 444 -4 812 -8 818 -7 12 -321 27 -354 18z"/>
<path d="M5609 3132 c-10 -2 -20 -13 -23 -25 -9 -35 -7 -1760 3 -1775 6 -10
48 -13 181 -13 95 1 176 4 181 7 5 3 9 365 9 826 l0 820 153 -4 c139 -3 157
-6 209 -30 165 -77 250 -255 220 -464 -27 -192 -139 -302 -328 -324 -43 -4
-80 -14 -84 -21 -15 -24 84 -265 171 -416 128 -223 279 -353 451 -389 84 -18
317 -11 330 9 13 21 10 25 -69 85 -158 120 -282 277 -407 513 -31 58 -56 110
-56 116 0 5 24 17 54 26 66 21 161 83 210 137 139 154 165 434 59 633 -66 124
-208 223 -385 268 -77 20 -109 22 -473 23 -214 1 -397 0 -406 -2z"/>
<path d="M7255 3126 c-13 -10 -15 -113 -13 -906 l3 -895 546 -5 c300 -3 553
-4 563 -2 14 3 16 15 14 85 l-3 82 -372 3 -373 2 0 340 0 340 224 0 c123 0
231 3 240 6 23 9 23 159 0 168 -9 3 -117 6 -240 6 l-224 0 0 310 0 310 373 2
372 3 3 74 c2 50 -1 77 -9 82 -21 12 -1086 8 -1104 -5z"/>
<path d="M4990 3090 c0 -32 40 -108 68 -130 15 -12 40 -20 65 -20 32 0 46 7
77 38 42 41 68 111 47 124 -6 4 -67 8 -134 8 -117 0 -123 -1 -123 -20z"/>
<path d="M4942 2718 c-9 -9 -12 -178 -12 -700 l0 -687 21 -12 c28 -14 341 -2
351 15 12 18 10 1354 -2 1377 -10 18 -23 19 -178 19 -117 0 -172 -4 -180 -12z"/>
<path d="M2284 2303 c-28 -63 -130 -302 -217 -508 -30 -71 -84 -200 -121 -287
-36 -86 -66 -163 -66 -172 0 -12 11 -16 48 -16 43 0 49 3 66 33 143 245 297
409 462 490 59 28 69 37 67 57 0 14 -41 123 -90 242 -100 248 -107 255 -149
161z"/>
</g>
</svg>
