<svg width="95" height="90" viewBox="0 0 95 90" fill="none" xmlns="http://www.w3.org/2000/svg">
<path d="M47.2349 52.0009C48.8432 51.8307 50.0084 50.3895 49.8386 48.7816C49.6684 47.1733 48.2268 46.0081 46.6189 46.1779L47.2349 52.0009ZM13.4773 18.6922L16.4038 18.7778C16.4044 18.7558 16.4048 18.7337 16.405 18.7118L13.4773 18.6922ZM16.4012 15.7879L16.4011 18.7158L16.4336 18.7154L16.4012 15.7879ZM33.341 23.6691C34.6926 24.5567 36.5077 24.1806 37.3954 22.8291C38.283 21.4776 37.9069 19.6624 36.5554 18.7748L33.341 23.6691ZM16.4012 12.8602C14.856 12.8602 13.3736 13.4713 12.2773 14.5602L16.405 18.7118L16.4011 18.7158L16.4012 12.8602ZM12.2773 14.5602C11.181 15.6492 10.56 17.1275 10.5497 18.6727L16.405 18.7118L12.2773 14.5602ZM10.5509 18.6066C9.96004 38.8151 27.8114 54.0566 47.2349 52.0009L46.6189 46.1779C30.5028 47.8834 15.9229 35.2249 16.4038 18.7778L10.5509 18.6066ZM36.5554 18.7748C30.5691 14.8433 23.5416 12.7809 16.3687 12.8604L16.4336 18.7154C22.4413 18.6489 28.3272 20.3762 33.341 23.6691L36.5554 18.7748Z" fill="#FA5538"/>
<path d="M56.6813 19.1483C55.3443 20.0577 54.9976 21.8787 55.9072 23.2157C56.8163 24.5527 58.6374 24.8993 59.9744 23.99L56.6813 19.1483ZM77.2994 15.7879L77.283 18.7156H77.2955L77.2994 15.7879ZM80.2154 18.6922L77.2877 18.7078C77.2881 18.7304 77.2884 18.7529 77.2888 18.7755L80.2154 18.6922ZM71.768 40.7984L73.7607 42.9434C73.8064 42.9009 73.8505 42.8571 73.8931 42.8123L71.768 40.7984ZM47.6741 46.2096C46.0634 46.0644 44.6406 47.2526 44.4954 48.8629C44.3505 50.4735 45.5384 51.8964 47.149 52.0412L47.6741 46.2096ZM59.9744 23.99C65.0768 20.5197 71.1125 18.6805 77.283 18.7156L77.3162 12.8602C69.9598 12.8183 62.7643 15.0111 56.6813 19.1483L59.9744 23.99ZM77.2955 18.7156C77.2935 18.7156 77.2916 18.7148 77.29 18.7133L81.4224 14.5646C80.3282 13.4749 78.8475 12.8622 77.3033 12.8602L77.2955 18.7156ZM77.29 18.7133C77.2888 18.7119 77.2877 18.7099 77.2877 18.7078L83.1431 18.6765C83.1349 17.1324 82.5162 15.6543 81.4224 14.5646L77.29 18.7133ZM77.2888 18.7755C77.3934 22.4498 76.772 26.1085 75.46 29.5421L80.9297 31.6322C82.5169 27.4789 83.2684 23.0532 83.1419 18.6088L77.2888 18.7755ZM75.46 29.5421C74.148 32.9756 72.1712 36.1165 69.6428 38.7846L73.8931 42.8123C76.9516 39.5847 79.3425 35.7855 80.9297 31.6322L75.46 29.5421ZM69.7752 38.6535C66.7725 41.4433 63.2069 43.5571 59.3185 44.8531L61.1696 50.4083C65.852 48.8476 70.1452 46.3025 73.7607 42.9434L69.7752 38.6535ZM59.3185 44.8531C55.5703 46.1026 51.6058 46.5636 47.6741 46.2096L47.149 52.0412C51.8833 52.4675 56.6567 51.9124 61.1696 50.4083L59.3185 44.8531Z" fill="#FA5538"/>
<path d="M79.0531 57.0436C79.0797 55.4267 77.7907 54.0948 76.1738 54.0683C74.5573 54.0417 73.225 55.3311 73.1985 56.9476L79.0531 57.0436ZM20.501 56.948C20.4747 55.3311 19.1427 54.0421 17.526 54.0683C15.9093 54.0948 14.62 55.4267 14.6464 57.0432L20.501 56.948ZM73.1985 56.9476C73.1606 59.2788 71.153 62.1694 66.17 64.6416C61.3611 67.0275 54.5388 68.5843 46.8498 68.5843V74.4397C55.2481 74.4397 62.9979 72.7521 68.7725 69.8869C74.3731 67.1083 78.9602 62.7405 79.0531 57.0436L73.1985 56.9476ZM46.8498 68.5843C39.1597 68.5843 32.3371 67.031 27.5287 64.6471C22.5477 62.1776 20.5392 59.2874 20.501 56.948L14.6464 57.0432C14.7393 62.7476 19.3251 67.1153 24.9277 69.8931C30.7027 72.7564 38.4524 74.4397 46.8498 74.4397V68.5843Z" fill="#1B645C"/>
<path d="M90.759 56.8617H93.6867V56.8332L90.759 56.8617ZM2.92771 56.8734L0 56.8461V56.8734H2.92771ZM9.00525 46.8048C9.91221 45.4662 9.56233 43.6456 8.22371 42.7388C6.88512 41.832 5.0647 42.1817 4.15774 43.5203L9.00525 46.8048ZM89.5891 43.6093C88.6882 42.2668 86.8691 41.9093 85.5266 42.8102C84.1842 43.7116 83.8262 45.5303 84.7276 46.8727L89.5891 43.6093ZM87.8313 56.8617C87.8313 63.6626 83.6962 70.1781 76.2719 75.1275C68.8687 80.0632 58.4726 83.2111 46.8434 83.2111V89.0665C59.4673 89.0665 71.029 85.6602 79.5201 79.9996C87.9906 74.3526 93.6867 66.2296 93.6867 56.8617H87.8313ZM46.8434 83.2111C35.2137 83.2111 24.8173 80.0659 17.414 75.1329C9.99032 70.1867 5.85542 63.6739 5.85542 56.8734H0C0 66.2417 5.69635 74.3616 14.1672 80.0058C22.6585 85.6633 34.2199 89.0665 46.8434 89.0665V83.2111ZM5.8553 56.9007C5.88899 53.2988 6.98474 49.7868 9.00525 46.8048L4.15774 43.5203C1.49085 47.4563 0.0444741 52.0918 0 56.8461L5.8553 56.9007ZM84.7276 46.8727C86.7172 49.8371 87.7966 53.3191 87.8313 56.8902L93.6867 56.8332C93.6403 52.1188 92.2155 47.5223 89.5891 43.6093L84.7276 46.8727Z" fill="black"/>
<path d="M46.9272 49.0896L45.0859 51.3658C46.1597 52.2343 47.6946 52.2343 48.7685 51.3658L46.9272 49.0896ZM35.2163 25.6678L32.2897 25.5881C32.288 25.6505 32.2882 25.7129 32.2905 25.7753L35.2163 25.6678ZM44.9207 4.01838L46.9276 6.15006C46.942 6.13659 46.9561 6.12297 46.9701 6.10919L44.9207 4.01838ZM48.9376 4.01838L46.8882 6.10919C46.9018 6.1227 46.9135 6.13683 46.9276 6.15006L48.9376 4.01838ZM58.638 25.6678L61.5638 25.7753C61.5661 25.7128 61.5661 25.6503 61.5646 25.5878L58.638 25.6678ZM46.9701 6.10919C46.9592 6.11993 46.9444 6.12594 46.9291 6.12594V0.270508C45.4118 0.270508 43.955 0.865442 42.8713 1.92758L46.9701 6.10919ZM46.9291 6.12594C46.9139 6.12594 46.8991 6.11993 46.8882 6.10919L50.9869 1.92758C49.9033 0.865442 48.4465 0.270508 46.9291 0.270508V6.12594ZM38.1429 25.7476C38.3435 18.3865 41.566 11.1977 46.9276 6.15006L42.9139 1.8867C36.4172 8.00287 32.5327 16.6687 32.2897 25.5881L38.1429 25.7476ZM48.7685 46.8134C42.376 41.6419 38.4438 33.7774 38.142 25.5604L32.2905 25.7753C32.6544 35.6835 37.3775 45.1298 45.0859 51.3658L48.7685 46.8134ZM55.7123 25.5604C55.4105 33.7774 51.4784 41.6419 45.0859 46.8134L48.7685 51.3658C56.4766 45.1298 61.2 35.6835 61.5638 25.7753L55.7123 25.5604ZM46.9276 6.15006C52.2869 11.1995 55.5101 18.3871 55.7115 25.7478L61.5646 25.5878C61.321 16.6698 57.4385 8.00525 50.9452 1.88748L46.9276 6.15006Z" fill="#FA5538"/>
</svg>
