<svg width="35" height="40" viewBox="0 0 35 40" fill="none" xmlns="http://www.w3.org/2000/svg">
<path d="M33.512 10.746C33.0596 10.699 32.4797 10.6072 31.8266 10.4299C30.305 10.0168 28.3626 9.13206 26.7318 7.25035C25.3117 5.62775 24.4451 3.60532 24.2417 1.475H19.4503V27.3667V27.3836L19.4497 27.4005C19.3904 29.1075 18.6703 30.7246 17.4415 31.9108C16.2126 33.0969 14.571 33.7594 12.8631 33.7583M33.512 10.746L12.8637 32.7833M33.512 10.746C33.5867 10.7537 33.6578 10.7603 33.7253 10.7658C33.9639 10.7852 34.1574 10.7918 34.2953 10.7933C34.3643 10.7941 34.4195 10.7936 34.4596 10.7928C34.4697 10.7926 34.4788 10.7924 34.487 10.7922V16.5117M33.512 10.746L34.487 16.5117M33.512 10.746V15.5066M33.512 10.746L34.487 16.5117M12.8631 33.7583L12.8637 32.7833M12.8631 33.7583C12.8633 33.7583 12.8635 33.7583 12.8637 33.7583V32.7833M12.8631 33.7583C9.25308 33.758 6.25534 30.8132 6.25534 27.15C6.25534 23.2096 9.68993 20.1481 13.557 20.5801M12.8637 32.7833C9.787 32.7833 7.23034 30.27 7.23034 27.15C7.23034 23.7519 10.2208 21.1284 13.557 21.5628V20.5801M13.557 20.5801C13.8796 20.6161 14.2052 20.6764 14.532 20.7626V21.7767V14.93M13.557 20.5801V15.8145M13.557 15.8145C13.8373 15.8314 14.1195 15.8586 14.4031 15.8964L14.532 14.93M13.557 15.8145V14.93H14.532M13.557 15.8145C7.02805 15.4209 1.48867 20.6092 1.48867 27.15C1.48867 33.7847 6.98939 38.525 12.842 38.525C19.1057 38.525 24.1953 33.4376 24.1953 27.15V13.5217V11.6211L25.7391 12.7297C28.0234 14.3702 30.7184 15.3292 33.512 15.5066M14.532 14.93C7.05701 13.9333 0.513672 19.74 0.513672 27.15C0.513672 34.365 6.49367 39.5 12.842 39.5C19.6453 39.5 25.1703 33.975 25.1703 27.15V14.7047C24.9784 14.5784 24.7888 14.448 24.6016 14.3136L25.1703 13.5217H26.1453V14.1689C28.3728 15.5325 30.903 16.328 33.512 16.4835V15.5066M33.512 15.5066C33.8353 15.5272 34.1599 15.5372 34.4853 15.5367L34.487 16.5117" fill="#F5F5F5" stroke="#F5F5F5" stroke-width="1.95"/>
</svg>
