<svg width="81" height="90" viewBox="0 0 81 90" fill="none" xmlns="http://www.w3.org/2000/svg">
<g clip-path="url(#clip0_292_2411)">
<path fill-rule="evenodd" clip-rule="evenodd" d="M23.114 20.3404C26.2427 20.0494 29.3453 20.9049 32.4429 21.7591C35.1109 22.4948 37.7754 23.2296 40.4494 23.2296C43.1294 23.2296 45.7993 22.4959 48.4731 21.7611C51.5645 20.9115 54.6612 20.0606 57.7849 20.3404C69.8837 21.4239 75.1204 31.8974 75.1204 49.2328C75.1204 63.6791 63.5652 83.9038 55.0401 83.9038C50.2558 83.9038 47.8874 82.5388 45.809 81.3409C44.184 80.4043 42.7362 79.5699 40.4494 79.5699C38.1625 79.5699 36.7143 80.4045 35.089 81.3411C33.0103 82.5389 30.6418 83.9038 25.8587 83.9038C17.3355 83.9038 5.77849 63.6791 5.77849 49.2328C5.77849 31.8974 11.557 21.4239 23.114 20.3404ZM58.3005 14.5849C66.2314 15.2952 72.2433 19.2617 76.0025 25.8177C79.5518 32.0076 80.8989 40.1374 80.8989 49.2328C80.8989 57.7568 77.5775 67.4202 73.2837 74.8709C71.1128 78.6381 68.5326 82.1246 65.7088 84.7499C63.0392 87.232 59.3519 89.6823 55.0401 89.6823C49.5303 89.6823 46.2129 88.2008 43.6742 86.7761C43.4319 86.64 43.2135 86.5171 43.0159 86.4057C41.2538 85.4128 41.1396 85.3484 40.4494 85.3484C39.7589 85.3484 39.6443 85.413 37.881 86.4065C37.6836 86.5176 37.4657 86.6405 37.2238 86.7762C34.6853 88.2007 31.3678 89.6823 25.8587 89.6823C21.5472 89.6823 17.86 87.2316 15.1907 84.7499C12.3671 82.1246 9.78691 78.6382 7.61583 74.871C3.32197 67.4205 0 57.7569 0 49.2328C0 40.0515 1.50895 31.9323 5.12933 25.7663C8.92118 19.3084 14.873 15.3092 22.5746 14.5871L22.5788 14.5867C26.6726 14.2059 30.5154 15.2388 33.3255 16.0087C33.4436 16.0411 33.56 16.073 33.675 16.1045C36.6431 16.9185 38.5855 17.4511 40.4494 17.4511C42.3231 17.4511 44.2768 16.9171 47.2558 16.1028C47.3616 16.0739 47.4687 16.0447 47.5771 16.015C50.3853 15.2479 54.2182 14.2192 58.3003 14.5849" fill="#FA5538"/>
<path d="M52.7142 12.2396C48.922 16.0318 44.469 17.1153 42.0926 17.4385C41.8754 17.4698 41.6538 17.4512 41.4448 17.3841C41.2358 17.3169 41.0449 17.2031 40.8864 17.0511C40.728 16.8992 40.6063 16.7131 40.5306 16.507C40.4549 16.301 40.4271 16.0805 40.4494 15.862C40.878 11.8 42.7041 8.01302 45.6157 5.14835C49.5884 1.17563 53.9223 0.290808 56.2192 0.119258C56.4337 0.0996919 56.6497 0.128306 56.8517 0.203011C57.0536 0.277715 57.2363 0.396618 57.3865 0.551022C57.5365 0.705426 57.6502 0.891425 57.7191 1.09542C57.7881 1.29941 57.8105 1.51622 57.7848 1.73001C57.3315 5.70575 55.544 9.41046 52.7142 12.2396Z" fill="#1B645C"/>
<path d="M33.2264 60.7898C35.62 60.7898 37.5603 56.9091 37.5603 52.1221C37.5603 47.3351 35.62 43.4543 33.2264 43.4543C30.8329 43.4543 28.8926 47.3351 28.8926 52.1221C28.8926 56.9091 30.8329 60.7898 33.2264 60.7898Z" fill="black"/>
<path d="M47.6727 60.7898C50.0663 60.7898 52.0066 56.9091 52.0066 52.1221C52.0066 47.3351 50.0663 43.4543 47.6727 43.4543C45.2792 43.4543 43.3389 47.3351 43.3389 52.1221C43.3389 56.9091 45.2792 60.7898 47.6727 60.7898Z" fill="black"/>
</g>
<defs>
<clipPath id="clip0_292_2411">
<rect width="80.8989" height="90" fill="white"/>
</clipPath>
</defs>
</svg>
