<svg width="90" height="90" viewBox="0 0 90 90" fill="none" xmlns="http://www.w3.org/2000/svg">
<g clip-path="url(#clip0_292_2410)">
<path d="M60.2931 0.421875C59.0978 1.125 58.6759 1.86328 58.8517 3.16406C58.9572 3.83203 59.1329 5.20312 59.2384 6.15234C59.5548 8.33203 59.1329 8.75391 56.5314 9.17578C49.8517 10.2305 51.9962 15.7852 60.8556 20.3555C64.1954 22.043 65.9181 22.2188 67.3595 20.9883C68.3439 20.1094 68.59 18.9141 68.0978 17.1211L67.8165 16.1367L69.504 17.2617C72.6681 19.4062 72.5626 19.0547 71.0158 22.1836C70.2423 23.6953 69.6095 25.1719 69.6095 25.418C69.6095 25.6992 69.9259 26.332 70.3478 26.8594C70.8751 27.5273 71.4025 27.7734 72.2814 27.7734C73.6173 27.7734 74.3908 27.1055 76.3947 24.3281C77.5548 22.7109 77.9064 22.5703 78.9611 23.3789C80.297 24.3984 82.0197 23.9766 82.8283 22.4297C83.6017 20.9531 82.9689 19.6523 80.8243 18.2461C79.8751 17.6484 79.1017 16.9102 79.1017 16.6641C79.1017 16.3828 79.4884 15.3633 79.9806 14.4141C81.0353 12.375 81.1056 10.8633 80.2267 10.0898C79.172 9.14062 77.8361 9.35156 76.7462 10.6172C73.6525 14.168 74.0743 13.8867 72.9845 13.1836L72.0353 12.5508L73.09 11.918C74.2853 11.2148 74.7423 9.98438 74.3556 8.50781C73.9689 6.89062 70.0665 3.51562 66.4806 1.65234C63.1759 -0.0351562 61.629 -0.351562 60.2931 0.421875ZM64.3361 2.21484C67.922 3.69141 73.1251 7.875 73.1251 9.24609C73.1251 10.1602 72.3868 10.7227 70.8048 11.0742C69.8908 11.25 69.0822 11.6367 69.0118 11.8477C68.8009 12.4102 72.9845 15.1172 74.0392 15.1172C74.5665 15.1172 75.4454 14.4141 76.6759 13.0078C77.6954 11.8477 78.6447 10.8984 78.8204 10.8984C79.5939 10.8984 79.4181 12.1289 78.3634 14.2031C77.3439 16.1719 77.2384 16.5586 77.6251 17.3672C77.8361 17.8594 78.8204 18.7734 79.7697 19.3359C81.7384 20.5664 82.1954 21.3398 81.3868 22.1133C80.8947 22.6406 80.754 22.6055 79.7697 22.043C77.6954 20.8828 76.7111 21.2695 74.7072 24.0469C73.3361 25.9805 72.422 26.6133 71.7189 26.1914C71.0861 25.8047 71.3673 24.6094 72.6681 22.2188C74.4611 18.9492 74.2853 18.5273 70.2423 15.8906C68.4493 14.7305 66.7618 13.8867 66.5158 13.9922C66.129 14.1328 66.0587 14.5547 66.2697 15.7852C66.9376 20.3203 66.5158 20.9531 63.5626 19.8984C61.172 19.0898 56.1447 15.75 55.0197 14.2734C54.0704 13.0078 53.8947 11.8828 54.5978 11.3203C54.8439 11.1094 55.8634 10.8281 56.8829 10.6875C60.3634 10.2305 61.629 8.22656 60.6447 4.74609C60.0822 2.88281 60.0822 2.70703 60.6798 2.07422C61.4533 1.23047 61.9454 1.23047 64.3361 2.21484Z" fill="black" stroke="black" stroke-width="1.33333"/>
<path d="M49.9217 16.875C49.1482 17.6484 49.0428 18.3516 49.6053 19.3711C49.992 20.1094 61.5584 26.0156 62.5779 26.0156C62.8943 26.0156 63.4568 25.6992 63.8084 25.3125C64.3006 24.75 64.3709 24.4336 64.0896 23.8008C63.6678 22.8867 52.4529 16.1719 51.3279 16.1719C50.9412 16.1719 50.3084 16.4883 49.9217 16.875ZM57.0232 20.8125C60.0818 22.6055 62.5779 24.1875 62.5779 24.3633C62.5779 24.5039 59.906 23.2734 56.6014 21.6211C53.3318 19.9688 50.6248 18.4922 50.6248 18.3516C50.6248 18 51.0115 17.5781 51.2576 17.5781C51.3631 17.5781 53.9646 19.0547 57.0232 20.8125Z" fill="#1B645C"/>
<path d="M19.09 19.2305C19.1603 19.4062 20.3204 21.832 21.6564 24.6797C22.9923 27.5625 24.1876 29.8828 24.2931 29.8828C24.3986 29.8828 25.0314 29.1445 25.6642 28.2305L26.8595 26.5781L30.1642 30.0938L33.4337 33.5742L30.5157 27.668L27.5978 21.7617L26.0157 23.5547L24.4337 25.3125L21.8322 22.1484C19.547 19.3359 18.6681 18.4219 19.09 19.2305Z" fill="#FA5538" stroke="#FA5538" stroke-width="2"/>
<path d="M47.0742 22.3242C46.5469 22.6054 45.9492 23.3437 45.7383 23.9414C45.4219 24.8554 45.4922 25.3476 46.2656 27.1406C47.6016 30.375 47.3906 30.7617 43.5234 32.3086C42.9609 32.5195 42.5391 32.8359 42.5391 33.0468C42.5391 33.75 43.5586 33.8203 45.3516 33.2226C48.3047 32.2382 49.2539 29.8828 47.8125 27.0703C47.0391 25.5586 46.8984 24.082 47.4961 23.6953C49.8516 22.2539 60.8203 27.0351 60.8203 29.5664C60.8203 30.3047 59.7305 31.1132 58.2891 31.4648C56.5312 31.9218 57.0586 32.8711 59.625 33.9609C62.5781 35.2265 63.3164 34.9804 65.0039 32.2031C67.043 28.8281 68.0977 29.3203 66.832 33.0468C65.8477 36 66.1641 36.6679 69.1172 38.0039C71.0508 38.8828 71.4023 39.164 71.2969 39.832C71.1914 40.5351 71.0156 40.6054 69.1523 40.5C67.9219 40.4296 66.9023 40.5703 66.5859 40.8164C66.3398 41.0273 65.4961 42.2929 64.793 43.6289C63.7734 45.5273 63.3164 46.0547 62.6836 46.0547C62.2617 46.0547 61.8047 45.8789 61.6992 45.7031C61.5938 45.4922 61.9102 44.0156 62.4375 42.3984C63.7383 38.3906 63.6328 38.1445 59.2383 36.2812C57.375 35.4726 55.6172 34.8047 55.3359 34.8047C54.6328 34.8047 54.7031 36.3515 55.5469 37.9687C56.9883 40.7812 55.9688 41.9414 52.6992 41.2031C50.3086 40.6406 49.9219 40.6757 49.9219 41.4492C49.9219 42.1875 52.0664 42.8906 54.457 42.8906C57.0938 42.8906 58.6055 40.3945 57.3398 38.039C56.7422 36.8789 56.8477 36.8789 58.957 37.7929C61.9805 39.164 61.9453 39.0234 60.8906 42.1875C59.8359 45.3867 60.0117 46.6172 61.6289 47.3906C63.2109 48.164 64.5117 47.4257 65.7422 45.0351C67.4297 41.6953 67.5352 41.625 69.1875 42.1523C70.4531 42.5742 70.7344 42.5742 71.543 42.0468C72.8086 41.2031 73.2656 40.1132 72.8086 38.9179C72.5273 38.1797 71.8242 37.6523 70.1367 36.8789C68.8711 36.2812 67.8516 35.5781 67.8516 35.332C67.8516 35.0859 68.0977 34.207 68.4141 33.3632C68.6953 32.5195 68.9766 31.3945 68.9766 30.832C69.0469 29.0742 67.3594 28.0195 65.5664 28.6875C65.25 28.8281 64.5469 29.8476 63.9844 30.9726C62.7539 33.3632 62.5781 33.5039 61.3125 33.0468L60.3633 32.6601L61.2773 31.7109C63.457 29.4609 61.7344 26.6484 56.8125 24.2578C53.8945 22.8515 50.4492 21.7968 48.8672 21.7968C48.375 21.832 47.5664 22.0429 47.0742 22.3242Z" fill="black" stroke="black" stroke-width="1.33333"/>
<path d="M16.8046 34.8047C16.7343 35.9648 16.5585 36.9844 16.4882 37.0898C16.3476 37.2305 11.9179 36.2461 8.26162 35.2969C7.8749 35.1914 10.0897 36.457 13.1835 38.1094C16.2772 39.7617 18.914 41.1328 19.0897 41.1328C19.2304 41.1328 19.3358 40.1836 19.3358 39.0234C19.3358 37.8633 19.4413 36.9141 19.6171 36.9141C19.7577 36.9492 21.7616 37.3359 24.0819 37.7578C26.4022 38.2148 28.3358 38.5664 28.4062 38.4961C28.5116 38.3906 17.4374 32.6953 17.121 32.6953C17.0155 32.6953 16.8749 33.6445 16.8046 34.8047Z" fill="#FA5538" stroke="#FA5538" stroke-width="2"/>
<path d="M38.2148 34.5937C31.3241 36.4218 29.2499 45.3866 34.664 49.8866C39.0937 53.5429 45.5273 52.1366 48.2695 46.9335C49.3241 44.9648 49.3241 41.1679 48.2695 39.164C46.3007 35.4726 42.1171 33.5741 38.2148 34.5937ZM43.453 36.1757C46.7577 37.6874 48.5859 41.4491 47.6718 44.9296C46.7577 48.5507 44.0507 50.6249 40.289 50.6249C33.4335 50.6249 30.164 42.6093 35.0507 37.7226C37.2655 35.5077 40.6054 34.8749 43.453 36.1757Z" fill="#FA5538"/>
<path d="M38.3203 37.5118C35.8945 38.4259 34.2773 41.0626 34.5586 43.6993C34.9453 47.7775 39.2695 50.0978 43.1015 48.3048C47.3554 46.2657 47.0742 39.5861 42.6445 37.7579C41.5195 37.2657 39.3047 37.1603 38.3203 37.5118ZM41.9414 38.8126C45.8086 40.465 46.0195 45.7736 42.2929 47.3556C37.7578 49.2189 33.6445 44.0509 36.6328 40.2189C37.4062 39.2696 39.0937 38.3556 40.1836 38.3204C40.5351 38.3204 41.3086 38.5314 41.9414 38.8126Z" fill="#FA5538"/>
<path d="M38.3908 41.2383C37.0197 42.7149 37.4767 44.9297 39.34 45.7031C41.4845 46.5821 43.7697 44.2969 42.8908 42.1524C42.0822 40.2539 39.7267 39.7969 38.3908 41.2383Z" fill="#FA5538"/>
<path d="M50.0977 43.5938C49.7461 44.1563 50.2031 44.6133 51.6797 45.0352C52.4531 45.2813 53.0859 45.5977 53.0859 45.7383C53.0859 45.9141 52.6641 45.8789 52.1719 45.7032C50.8008 45.1758 49.5703 45.2813 49.5703 45.8789C49.5703 46.4414 50.8008 47.0391 52.5586 47.3555C53.332 47.461 53.7891 47.3203 54.2812 46.8282C55.2305 45.7735 54.7031 44.7188 52.8398 43.9102C51.082 43.1719 50.4141 43.0664 50.0977 43.5938Z" fill="#1B645C"/>
<path d="M15.8202 47.3555C15.8202 47.4961 16.1366 48.4805 16.5233 49.5352C16.9452 50.5547 17.2265 51.4688 17.1562 51.5039C17.0858 51.5391 15.328 51.8555 13.2538 52.207C11.1796 52.5586 9.38662 52.9453 9.31631 53.0859C9.246 53.2266 11.1796 53.4375 13.6405 53.5781C16.1015 53.7188 18.8788 53.8945 19.7929 54.0352L21.5155 54.2461L20.8124 52.875C19.3007 49.8867 19.1601 50.0977 23.9062 49.0078C26.6132 48.375 27.9491 47.9531 27.5272 47.7773C26.5429 47.4258 15.8202 47.0391 15.8202 47.3555Z" fill="#FA5538" stroke="#FA5538" stroke-width="1.33333"/>
<path d="M48.7617 47.7069C48.2695 48.164 48.5508 48.4804 50.2734 49.4296C51.9961 50.3788 52.7344 51.5038 52.207 52.3827C52.1016 52.5585 51.3633 53.0507 50.5898 53.4374C48.4102 54.5624 48.8672 55.1249 52.5234 55.8983C54.3867 56.2851 54.668 56.2499 55.4766 55.6523C56.0391 55.2304 56.6367 54.1757 57.0938 52.7343C57.5859 51.2577 58.0078 50.4491 58.3594 50.4491C58.7812 50.4491 58.8867 50.9765 58.7812 53.2968C58.6758 56.7421 59.0625 57.1991 62.332 58.0077C64.2656 58.4648 64.5117 58.6405 64.5117 59.414C64.5117 60.2226 64.3711 60.2929 62.5078 60.4687C61.418 60.5741 60.3984 60.7851 60.2578 60.9257C60.1172 61.0663 59.5547 62.5077 59.0625 64.0898C58.2188 66.6562 58.043 66.9726 57.2695 66.9726H56.4258L56.5312 63.3866C56.6719 59.9765 56.6367 59.8007 55.8281 59.3085C54.8086 58.6405 48.3047 57.164 47.8125 57.4804C47.2852 57.7968 47.707 58.9569 48.9375 60.6796C50.1328 62.3671 50.0977 63.246 48.8672 63.8788C47.7422 64.4413 46.3359 64.4413 43.1719 63.8437C35.7539 62.4023 33.6094 60.1171 37.582 57.9374C39.5156 56.8827 40.5352 55.371 40.3594 53.8593C40.2188 52.6991 38.8125 52.453 38.918 53.578C39.0234 54.8437 38.3555 55.8632 36.9141 56.6015C34.8047 57.6913 34.1016 58.4999 34.1016 59.9765C34.1016 62.4726 37.3711 64.371 43.3828 65.4257C48.4805 66.3046 51.3281 65.2851 51.3281 62.578C51.3281 61.8046 51.0469 60.8905 50.625 60.3632C50.2383 59.871 49.9219 59.414 49.9219 59.3085C49.9219 59.2382 51.082 59.414 52.4883 59.7304L55.0195 60.328V61.5233C54.9844 62.1913 54.8789 63.6327 54.7383 64.7226C54.4922 66.4101 54.5625 66.7968 55.1953 67.6054C56.0391 68.6601 57.7617 68.9062 58.8164 68.0976C59.1328 67.8866 59.8359 66.4101 60.3633 64.8632L61.3477 62.0507H63C65.0039 62.0507 66.1992 61.0663 66.1992 59.4491C66.1992 57.8671 65.25 57.0233 62.8945 56.5663C61.7695 56.3554 60.6797 55.9687 60.5039 55.7577C60.3281 55.5116 60.3281 54.4921 60.5391 53.1562C60.9258 50.6249 60.4336 49.3944 58.8867 49.0077C57.4102 48.6562 56.3906 49.6405 55.6523 52.1015C55.0195 54.2812 54.9844 54.3163 53.6484 54.4218L52.2773 54.5273L53.0508 53.578C54.5977 51.6444 53.5781 49.1132 50.8008 47.953C49.4648 47.3905 49.0781 47.3554 48.7617 47.7069Z" fill="black" stroke="black" stroke-width="1.33333"/>
<path d="M34.1717 65.6016C33.5389 66.0234 33.3983 66.4453 33.4686 67.4297C33.6444 69.3984 34.3124 69.5391 42.3631 69.6797L49.3944 69.7852L49.4999 68.5195C49.5702 67.5352 49.4647 67.1836 48.9725 67.0078C48.6209 66.8672 45.3514 66.375 41.66 65.8828C38.0038 65.4258 34.9803 65.0391 34.9803 65.0391C34.9803 65.0391 34.5936 65.2852 34.1717 65.6016ZM42.5038 67.5C45.492 67.8867 48.0233 68.2734 48.1288 68.4141C48.3749 68.6602 38.2499 68.2734 36.1405 67.9922C34.453 67.7461 34.3124 66.7969 35.9647 66.7969C36.5624 66.7969 39.5155 67.1133 42.5038 67.5Z" fill="#1B645C"/>
<path d="M52.9102 71.0508C52.4883 71.5078 52.1719 72.5625 51.9961 74.0742C51.75 76.4649 51.3984 76.9922 50.0273 76.9922C49.2539 76.9922 49.2539 76.9922 49.8164 75.7617C50.3437 74.6367 50.3437 74.4258 49.8516 73.3711C48.9727 71.5078 47.2852 70.9102 42.5391 70.7344C40.0781 70.6289 37.6523 70.7696 36.3867 71.0157C32.0625 71.9297 31.1133 74.7071 34.207 77.5196C36.7031 79.7696 36.668 80.4727 33.8906 83.1094C32.2383 84.7266 32.0273 85.5352 32.8711 87.1875C33.75 88.875 35.9648 89.4727 41.3086 89.4727C44.8945 89.4727 46.2305 89.3321 47.5664 88.8399C50.4844 87.7149 51.0469 85.043 48.7969 83.1446L47.707 82.2305L50.4844 82.336L53.2617 82.4414L53.543 84.9024C53.9297 88.3125 54.1758 89.0157 55.2305 89.6133C56.3555 90.2461 57.832 89.8946 58.5 88.8399C58.8164 88.418 59.168 86.8008 59.3086 85.2539C59.5547 82.8282 59.6953 82.4414 60.293 82.336C62.0508 82.0899 62.6484 81.8438 63.2812 81.211C64.1953 80.2969 64.1602 79.1016 63.2461 77.9063C62.6133 77.0625 62.2969 76.9922 60.1172 76.9922C58.6406 76.9922 57.6211 76.8164 57.375 76.5352C57.1992 76.3242 56.9531 75.1289 56.8828 73.9336C56.707 71.4375 55.9687 70.3125 54.4922 70.3125C53.9648 70.3125 53.2617 70.6289 52.9102 71.0508ZM55.2305 72.8086C55.3711 73.2657 55.4766 74.3203 55.5117 75.1641C55.582 77.5196 56.6719 78.3985 59.5195 78.3985C61.0312 78.3985 61.9102 78.5742 62.1914 78.8907C62.8594 79.6992 62.2617 80.4024 60.75 80.6133C58.6406 80.8946 58.2539 81.4922 57.832 84.9727C57.5859 87.1524 57.3047 88.1016 56.8828 88.3828C55.8633 89.0157 55.4062 88.1016 55.1602 85.043C54.8086 81.0703 54.4219 80.7188 50.2383 80.543C44.8945 80.3672 44.1914 80.9649 46.9336 83.461C49.5352 85.8867 48.8672 87.3282 44.7891 87.961C42.1172 88.3828 37.3711 88.1367 35.5781 87.5039C34.5937 87.1524 33.75 86.3086 33.75 85.6055C33.75 85.4649 34.5234 84.6211 35.4727 83.7071C38.2148 81.0703 38.2852 79.2422 35.7187 76.8164C33.8555 75.0586 33.5742 74.3555 34.418 73.5117C35.9297 72 44.1562 71.6133 47.2148 72.8789C48.3047 73.336 48.5156 73.6172 48.5156 74.4961C48.5156 75.2696 48.2344 75.7266 47.4609 76.2891C46.8984 76.711 46.4062 77.3438 46.4062 77.7305C46.4062 78.3282 46.6875 78.3985 49.043 78.3985C51.3984 78.3985 51.8203 78.293 52.5586 77.5196C53.2969 76.8164 53.4375 76.3242 53.4375 74.6016C53.4375 71.8946 54.6328 70.6641 55.2305 72.8086Z" fill="black" stroke="black" stroke-width="1.33333"/>
</g>
<defs>
<clipPath id="clip0_292_2410">
<rect width="90" height="90" fill="white"/>
</clipPath>
</defs>
</svg>
