<svg width="19" height="40" viewBox="0 0 19 40" fill="none" xmlns="http://www.w3.org/2000/svg">
<path d="M17.6245 1.59421C17.7575 1.60407 17.8815 1.61392 17.9957 1.62348L17.8261 5.8625H14.6191C13.3283 5.8625 12.24 6.10967 11.5845 6.98375C11.2748 7.39666 11.128 7.86854 11.0523 8.32252C10.9774 8.77194 10.9629 9.26584 10.9629 9.7625V14.6375V15.6125H11.9379H17.9949L17.8233 20.2437H11.9379H10.9629V21.2188V38.525H5.84414V21.2188V20.2437H4.86914H0.969141V15.6125H4.86914H5.84414V14.6375V9.03125C5.84414 7.05053 6.50282 5.17701 7.85039 3.80302C9.18912 2.43804 11.2974 1.475 14.3754 1.475C15.6873 1.475 16.8206 1.53466 17.6245 1.59421Z" fill="#F5F5F5" stroke="#F5F5F5" stroke-width="1.95"/>
</svg>
