<svg width="39" height="40" viewBox="0 0 39 40" fill="none" xmlns="http://www.w3.org/2000/svg">
<mask id="path-1-inside-1_261_2552" fill="white">
<path d="M21.5047 0.499512C23.6985 0.505362 24.8119 0.517062 25.7733 0.544362L26.1516 0.558012C26.5884 0.573612 27.0193 0.593112 27.54 0.616512C29.6148 0.714012 31.0305 1.04161 32.2726 1.52326C33.5596 2.01856 34.6438 2.68936 35.728 3.77161C36.72 4.74609 37.4873 5.92533 37.9764 7.22701C38.458 8.46916 38.7856 9.88486 38.8831 11.9616C38.9065 12.4803 38.926 12.9113 38.9416 13.35L38.9533 13.7283C38.9826 14.6877 38.9943 15.8012 38.9982 17.9949L39.0001 19.4496V22.0041C39.0049 23.4265 38.9899 24.8488 38.9553 26.2707L38.9436 26.649C38.928 27.0878 38.9085 27.5187 38.8851 28.0374C38.7876 30.1142 38.4561 31.5279 37.9764 32.772C37.4873 34.0737 36.72 35.2529 35.728 36.2274C34.7536 37.2194 33.5743 37.9867 32.2726 38.4758C31.0305 38.9574 29.6148 39.285 27.54 39.3825L26.1516 39.441L25.7733 39.4527C24.8119 39.48 23.6985 39.4937 21.5047 39.4976L20.05 39.4995H17.4975C16.0745 39.5045 14.6515 39.4896 13.2289 39.4547L12.8506 39.443C12.3877 39.4254 11.9249 39.4053 11.4622 39.3825C9.38743 39.285 7.97173 38.9574 6.72763 38.4758C5.42665 37.9864 4.2481 37.2191 3.27418 36.2274C2.28153 35.2531 1.51354 34.0739 1.02388 32.772C0.542233 31.5299 0.214632 30.1142 0.117132 28.0374L0.0586325 26.649L0.0488828 26.2707C0.0129366 24.8488 -0.00331519 23.4265 0.000132592 22.0041V17.9949C-0.0052648 16.5726 0.00903672 15.1502 0.0430327 13.7283L0.0566827 13.35C0.0722827 12.9113 0.0917826 12.4803 0.115183 11.9616C0.212683 9.88486 0.540282 8.47111 1.02193 7.22701C1.51274 5.9248 2.28207 4.74551 3.27613 3.77161C4.24948 2.78013 5.42735 2.01286 6.72763 1.52326C7.97173 1.04161 9.38548 0.714012 11.4622 0.616512C11.9809 0.593112 12.4138 0.573612 12.8506 0.558012L13.2289 0.546312C14.6509 0.511665 16.0732 0.496714 17.4955 0.501462L21.5047 0.499512ZM19.5001 10.2495C16.9143 10.2495 14.4343 11.2767 12.6058 13.1052C10.7774 14.9337 9.75013 17.4137 9.75013 19.9995C9.75013 22.5854 10.7774 25.0653 12.6058 26.8938C14.4343 28.7223 16.9143 29.7495 19.5001 29.7495C22.086 29.7495 24.5659 28.7223 26.3944 26.8938C28.2229 25.0653 29.2501 22.5854 29.2501 19.9995C29.2501 17.4137 28.2229 14.9337 26.3944 13.1052C24.5659 11.2767 22.086 10.2495 19.5001 10.2495ZM19.5001 14.1495C20.2684 14.1494 21.0291 14.3006 21.7389 14.5944C22.4487 14.8883 23.0937 15.3191 23.637 15.8622C24.1803 16.4054 24.6113 17.0502 24.9054 17.7599C25.1995 18.4696 25.351 19.2303 25.3511 19.9985C25.3512 20.7668 25.2 21.5275 24.9062 22.2373C24.6123 22.9471 24.1815 23.5921 23.6384 24.1354C23.0952 24.6787 22.4504 25.1097 21.7407 25.4038C21.031 25.6979 20.2703 25.8494 19.5021 25.8495C17.9506 25.8495 16.4626 25.2332 15.3655 24.1361C14.2684 23.039 13.6521 21.551 13.6521 19.9995C13.6521 18.448 14.2684 16.96 15.3655 15.8629C16.4626 14.7658 17.9506 14.1495 19.5021 14.1495M29.7396 7.32451C29.0931 7.32451 28.4731 7.58132 28.016 8.03844C27.5589 8.49556 27.3021 9.11555 27.3021 9.76201C27.3021 10.4085 27.5589 11.0285 28.016 11.4856C28.4731 11.9427 29.0931 12.1995 29.7396 12.1995C30.386 12.1995 31.006 11.9427 31.4632 11.4856C31.9203 11.0285 32.1771 10.4085 32.1771 9.76201C32.1771 9.11555 31.9203 8.49556 31.4632 8.03844C31.006 7.58132 30.386 7.32451 29.7396 7.32451Z"/>
</mask>
<path d="M21.5047 0.499512C23.6985 0.505362 24.8119 0.517062 25.7733 0.544362L26.1516 0.558012C26.5884 0.573612 27.0193 0.593112 27.54 0.616512C29.6148 0.714012 31.0305 1.04161 32.2726 1.52326C33.5596 2.01856 34.6438 2.68936 35.728 3.77161C36.72 4.74609 37.4873 5.92533 37.9764 7.22701C38.458 8.46916 38.7856 9.88486 38.8831 11.9616C38.9065 12.4803 38.926 12.9113 38.9416 13.35L38.9533 13.7283C38.9826 14.6877 38.9943 15.8012 38.9982 17.9949L39.0001 19.4496V22.0041C39.0049 23.4265 38.9899 24.8488 38.9553 26.2707L38.9436 26.649C38.928 27.0878 38.9085 27.5187 38.8851 28.0374C38.7876 30.1142 38.4561 31.5279 37.9764 32.772C37.4873 34.0737 36.72 35.2529 35.728 36.2274C34.7536 37.2194 33.5743 37.9867 32.2726 38.4758C31.0305 38.9574 29.6148 39.285 27.54 39.3825L26.1516 39.441L25.7733 39.4527C24.8119 39.48 23.6985 39.4937 21.5047 39.4976L20.05 39.4995H17.4975C16.0745 39.5045 14.6515 39.4896 13.2289 39.4547L12.8506 39.443C12.3877 39.4254 11.9249 39.4053 11.4622 39.3825C9.38743 39.285 7.97173 38.9574 6.72763 38.4758C5.42665 37.9864 4.2481 37.2191 3.27418 36.2274C2.28153 35.2531 1.51354 34.0739 1.02388 32.772C0.542233 31.5299 0.214632 30.1142 0.117132 28.0374L0.0586325 26.649L0.0488828 26.2707C0.0129366 24.8488 -0.00331519 23.4265 0.000132592 22.0041V17.9949C-0.0052648 16.5726 0.00903672 15.1502 0.0430327 13.7283L0.0566827 13.35C0.0722827 12.9113 0.0917826 12.4803 0.115183 11.9616C0.212683 9.88486 0.540282 8.47111 1.02193 7.22701C1.51274 5.9248 2.28207 4.74551 3.27613 3.77161C4.24948 2.78013 5.42735 2.01286 6.72763 1.52326C7.97173 1.04161 9.38548 0.714012 11.4622 0.616512C11.9809 0.593112 12.4138 0.573612 12.8506 0.558012L13.2289 0.546312C14.6509 0.511665 16.0732 0.496714 17.4955 0.501462L21.5047 0.499512ZM19.5001 10.2495C16.9143 10.2495 14.4343 11.2767 12.6058 13.1052C10.7774 14.9337 9.75013 17.4137 9.75013 19.9995C9.75013 22.5854 10.7774 25.0653 12.6058 26.8938C14.4343 28.7223 16.9143 29.7495 19.5001 29.7495C22.086 29.7495 24.5659 28.7223 26.3944 26.8938C28.2229 25.0653 29.2501 22.5854 29.2501 19.9995C29.2501 17.4137 28.2229 14.9337 26.3944 13.1052C24.5659 11.2767 22.086 10.2495 19.5001 10.2495ZM19.5001 14.1495C20.2684 14.1494 21.0291 14.3006 21.7389 14.5944C22.4487 14.8883 23.0937 15.3191 23.637 15.8622C24.1803 16.4054 24.6113 17.0502 24.9054 17.7599C25.1995 18.4696 25.351 19.2303 25.3511 19.9985C25.3512 20.7668 25.2 21.5275 24.9062 22.2373C24.6123 22.9471 24.1815 23.5921 23.6384 24.1354C23.0952 24.6787 22.4504 25.1097 21.7407 25.4038C21.031 25.6979 20.2703 25.8494 19.5021 25.8495C17.9506 25.8495 16.4626 25.2332 15.3655 24.1361C14.2684 23.039 13.6521 21.551 13.6521 19.9995C13.6521 18.448 14.2684 16.96 15.3655 15.8629C16.4626 14.7658 17.9506 14.1495 19.5021 14.1495M29.7396 7.32451C29.0931 7.32451 28.4731 7.58132 28.016 8.03844C27.5589 8.49556 27.3021 9.11555 27.3021 9.76201C27.3021 10.4085 27.5589 11.0285 28.016 11.4856C28.4731 11.9427 29.0931 12.1995 29.7396 12.1995C30.386 12.1995 31.006 11.9427 31.4632 11.4856C31.9203 11.0285 32.1771 10.4085 32.1771 9.76201C32.1771 9.11555 31.9203 8.49556 31.4632 8.03844C31.006 7.58132 30.386 7.32451 29.7396 7.32451Z" fill="#F5F5F5"/>
<path d="M21.5047 0.499512L21.5099 -1.45049L21.5038 -1.45049L21.5047 0.499512ZM25.7733 0.544362L25.8436 -1.40437L25.8361 -1.40464L25.8286 -1.40485L25.7733 0.544362ZM26.1516 0.558012L26.0813 2.50674L26.082 2.50677L26.1516 0.558012ZM27.54 0.616512L27.6315 -1.33134L27.6275 -1.33152L27.54 0.616512ZM32.2726 1.52326L31.5676 3.34137L31.5723 3.34314L32.2726 1.52326ZM35.728 3.77161L34.3504 5.15171L34.3559 5.15721L34.3615 5.16267L35.728 3.77161ZM37.9764 7.22701L36.151 7.91288L36.1546 7.92246L36.1583 7.93199L37.9764 7.22701ZM38.8831 11.9616L40.8312 11.8737L40.831 11.8702L38.8831 11.9616ZM38.9416 13.35L40.8907 13.2897L40.8904 13.2807L38.9416 13.35ZM38.9533 13.7283L40.9024 13.6689L40.9024 13.668L38.9533 13.7283ZM38.9982 17.9949L40.9482 17.9923V17.9914L38.9982 17.9949ZM39.0001 19.4496H40.9501L40.9501 19.447L39.0001 19.4496ZM39.0001 22.0041H37.0501L37.0501 22.0106L39.0001 22.0041ZM38.9553 26.2707L40.9044 26.331L40.9047 26.3182L38.9553 26.2707ZM38.9436 26.649L40.8924 26.7183L40.8927 26.7093L38.9436 26.649ZM38.8851 28.0374L40.8329 28.1289L40.8331 28.1253L38.8851 28.0374ZM37.9764 32.772L36.1569 32.0705L36.1539 32.0783L36.151 32.0861L37.9764 32.772ZM35.728 36.2274L34.3615 34.8364L34.3491 34.8485L34.337 34.8609L35.728 36.2274ZM32.2726 38.4758L31.5868 36.6504L31.5772 36.654L31.5677 36.6577L32.2726 38.4758ZM27.54 39.3825L27.6221 41.3308L27.6315 41.3304L27.54 39.3825ZM26.1516 39.441L26.2119 41.3901L26.2228 41.3897L26.2337 41.3893L26.1516 39.441ZM25.7733 39.4527L25.8286 41.4019L25.8336 41.4018L25.7733 39.4527ZM21.5047 39.4976L21.5073 41.4476L21.5082 41.4476L21.5047 39.4976ZM20.05 39.4995V41.4495L20.0526 41.4495L20.05 39.4995ZM17.4975 39.4995V37.5495L17.4906 37.5495L17.4975 39.4995ZM13.2289 39.4547L13.1687 41.4038L13.1811 41.4041L13.2289 39.4547ZM12.8506 39.443L12.7768 41.3916L12.7904 41.392L12.8506 39.443ZM11.4622 39.3825L11.5581 37.4349L11.5538 37.4347L11.4622 39.3825ZM6.72763 38.4758L7.43165 36.6573L7.42291 36.6539L7.41414 36.6506L6.72763 38.4758ZM3.27418 36.2274L4.66547 34.8611L4.6529 34.8483L4.6401 34.8357L3.27418 36.2274ZM1.02388 32.772L2.84905 32.0855L2.84556 32.0763L2.84199 32.067L1.02388 32.772ZM0.117132 28.0374L-1.83116 28.1195L-1.83072 28.1289L0.117132 28.0374ZM0.0586325 26.649L-1.89072 26.6993L-1.89031 26.7152L-1.88964 26.7311L0.0586325 26.649ZM0.0488828 26.2707L-1.90049 26.32L-1.90047 26.321L0.0488828 26.2707ZM0.000132592 22.0041L1.95013 22.0088V22.0041H0.000132592ZM0.000132592 17.9949H1.95015L1.95012 17.9875L0.000132592 17.9949ZM0.0430327 13.7283L-1.9057 13.658L-1.90613 13.6698L-1.90641 13.6817L0.0430327 13.7283ZM0.0566827 13.35L2.00541 13.4203L2.00545 13.4193L0.0566827 13.35ZM0.115183 11.9616L-1.83268 11.8702L-1.83284 11.8737L0.115183 11.9616ZM1.02193 7.22701L2.84041 7.93103L2.84356 7.9229L2.84663 7.91474L1.02193 7.22701ZM3.27613 3.77161L4.64079 5.16452L4.65435 5.15124L4.66765 5.13769L3.27613 3.77161ZM6.72763 1.52326L7.41477 3.34819L7.42322 3.345L7.43165 3.34174L6.72763 1.52326ZM11.4622 0.616512L11.3744 -1.33151L11.3708 -1.33134L11.4622 0.616512ZM12.8506 0.558012L12.7904 -1.39108L12.781 -1.39075L12.8506 0.558012ZM13.2289 0.546312L13.1814 -1.40315L13.1687 -1.40276L13.2289 0.546312ZM17.4955 0.501462L17.489 2.45147L17.4965 2.45146L17.4955 0.501462ZM19.5001 10.2495V8.29951V10.2495ZM9.75013 19.9995H7.80013H9.75013ZM19.5001 29.7495V27.7995V29.7495ZM29.2501 19.9995H27.3001H29.2501ZM19.5021 25.8495V27.7995H19.5024L19.5021 25.8495ZM21.4995 2.4495C23.6922 2.45535 24.7838 2.46705 25.7179 2.49358L25.8286 -1.40485C24.8401 -1.43293 23.7048 -1.44463 21.5099 -1.45048L21.4995 2.4495ZM25.703 2.49309L26.0813 2.50674L26.2219 -1.39072L25.8436 -1.40437L25.703 2.49309ZM26.082 2.50677C26.508 2.52198 26.9293 2.54104 27.4524 2.56455L27.6275 -1.33152C27.1093 -1.35481 26.6687 -1.37476 26.2212 -1.39075L26.082 2.50677ZM27.4484 2.56436C29.3411 2.6533 30.5462 2.94528 31.5677 3.34137L32.9776 -0.294843C31.5148 -0.862052 29.8885 -1.22528 27.6315 -1.33134L27.4484 2.56436ZM31.5723 3.34314C32.6165 3.74502 33.4671 4.27001 34.3504 5.15171L37.1057 2.39151C35.8205 1.10872 34.5028 0.292104 32.973 -0.29662L31.5723 3.34314ZM34.3615 5.16267C35.151 5.93827 35.7617 6.87685 36.151 7.91288L39.8018 6.54114C39.2129 4.97381 38.289 3.55391 37.0946 2.38056L34.3615 5.16267ZM36.1583 7.93199C36.5543 8.95337 36.8463 10.1584 36.9353 12.0531L40.831 11.8702C40.7249 9.61132 40.3617 7.98495 39.7945 6.52203L36.1583 7.93199ZM36.9351 12.0495C36.9586 12.5703 36.9777 12.9916 36.9929 13.4193L40.8904 13.2807C40.8744 12.8309 40.8545 12.3903 40.8312 11.8737L36.9351 12.0495ZM36.9926 13.4103L37.0043 13.7886L40.9024 13.668L40.8907 13.2897L36.9926 13.4103ZM37.0042 13.7877C37.0326 14.7167 37.0443 15.8058 37.0482 17.9984L40.9482 17.9914C40.9443 15.7965 40.9326 14.6587 40.9024 13.6689L37.0042 13.7877ZM37.0482 17.9975L37.0501 19.4522L40.9501 19.447L40.9482 17.9923L37.0482 17.9975ZM37.0501 19.4496V22.0041H40.9501V19.4496H37.0501ZM37.0501 22.0106C37.0548 23.415 37.0401 24.8193 37.0059 26.2232L40.9047 26.3182C40.9398 24.8783 40.9549 23.4379 40.9501 21.9976L37.0501 22.0106ZM37.0062 26.2104L36.9945 26.5887L40.8927 26.7093L40.9044 26.331L37.0062 26.2104ZM36.9948 26.5797C36.9796 27.0074 36.9606 27.4287 36.9371 27.9495L40.8331 28.1253C40.8564 27.6087 40.8764 27.1681 40.8924 26.7183L36.9948 26.5797ZM36.9372 27.946C36.8485 29.8365 36.5536 31.0417 36.1569 32.0705L39.7958 33.4735C40.3585 32.0141 40.7267 30.3918 40.8329 28.1289L36.9372 27.946ZM36.151 32.0861C35.7617 33.1222 35.151 34.0608 34.3615 34.8364L37.0946 37.6185C38.289 36.4451 39.2129 35.0252 39.8018 33.4579L36.151 32.0861ZM34.337 34.8609C33.5614 35.6504 32.6228 36.2611 31.5868 36.6504L32.9585 40.3012C34.5258 39.7123 35.9457 38.7884 37.1191 37.594L34.337 34.8609ZM31.5677 36.6577C30.5462 37.0537 29.3411 37.3457 27.4484 37.4347L27.6315 41.3304C29.8885 41.2243 31.5148 40.8611 32.9776 40.2939L31.5677 36.6577ZM27.4579 37.4342L26.0695 37.4927L26.2337 41.3893L27.6221 41.3308L27.4579 37.4342ZM26.0913 37.4919L25.713 37.5036L25.8336 41.4018L26.2119 41.3901L26.0913 37.4919ZM25.7179 37.5035C24.7831 37.53 23.6904 37.5437 21.5013 37.5476L21.5082 41.4476C23.7066 41.4437 24.8408 41.43 25.8286 41.4019L25.7179 37.5035ZM21.5021 37.5476L20.0474 37.5495L20.0526 41.4495L21.5073 41.4476L21.5021 37.5476ZM20.05 37.5495H17.4975V41.4495H20.05V37.5495ZM17.4906 37.5495C16.0859 37.5545 14.6811 37.5397 13.2768 37.5052L13.1811 41.4041C14.6219 41.4394 16.0631 41.4546 17.5044 41.4495L17.4906 37.5495ZM13.2892 37.5056L12.9109 37.4939L12.7904 41.392L13.1687 41.4037L13.2892 37.5056ZM12.9244 37.4944C12.4689 37.4771 12.0134 37.4573 11.5581 37.4349L11.3664 41.3302C11.8364 41.3533 12.3066 41.3738 12.7768 41.3916L12.9244 37.4944ZM11.5538 37.4347C9.66136 37.3457 8.45585 37.0538 7.43165 36.6573L6.02361 40.2942C7.48762 40.861 9.11351 41.2243 11.3707 41.3304L11.5538 37.4347ZM7.41414 36.6506C6.37866 36.2611 5.44063 35.6504 4.66547 34.8611L1.88289 37.5937C3.05556 38.7878 4.47464 39.7117 6.04113 40.3009L7.41414 36.6506ZM4.6401 34.8357C3.85003 34.0603 3.23878 33.1217 2.84905 32.0855L-0.801283 33.4585C-0.21169 35.026 0.713021 36.446 1.90826 37.6191L4.6401 34.8357ZM2.84199 32.067C2.44594 31.0457 2.15394 29.8406 2.06499 27.946L-1.83072 28.1289C-1.72467 30.3877 -1.36148 32.0141 -0.794222 33.477L2.84199 32.067ZM2.0654 27.9553L2.0069 26.5669L-1.88964 26.7311L-1.83114 28.1195L2.0654 27.9553ZM2.00799 26.5988L1.99824 26.2205L-1.90047 26.321L-1.89072 26.6993L2.00799 26.5988ZM1.99826 26.2214C1.96277 24.8175 1.94672 23.4132 1.95013 22.0088L-1.94986 21.9994C-1.95335 23.4397 -1.9369 24.8801 -1.90049 26.32L1.99826 26.2214ZM1.95013 22.0041V17.9949H-1.94987V22.0041H1.95013ZM1.95012 17.9875C1.94479 16.5832 1.95891 15.1789 1.99248 13.7749L-1.90641 13.6817C-1.94084 15.1216 -1.95532 16.562 -1.94985 18.0023L1.95012 17.9875ZM1.99176 13.7986L2.00541 13.4203L-1.89205 13.2797L-1.9057 13.658L1.99176 13.7986ZM2.00545 13.4193C2.02066 12.9916 2.03971 12.5703 2.0632 12.0495L-1.83284 11.8737C-1.85614 12.3903 -1.87609 12.8309 -1.89209 13.2807L2.00545 13.4193ZM2.06304 12.0531C2.15196 10.159 2.44383 8.95539 2.84041 7.93103L-0.796544 6.52299C-1.36327 7.98683 -1.7266 9.61076 -1.83267 11.8702L2.06304 12.0531ZM2.84663 7.91474C3.23727 6.87829 3.8496 5.93967 4.64079 5.16452L1.91147 2.3787C0.714539 3.55135 -0.211799 4.97131 -0.802767 6.53928L2.84663 7.91474ZM4.66765 5.13769C5.44236 4.34855 6.37985 3.73786 7.41477 3.34819L6.0405 -0.301662C4.47485 0.287848 3.0566 1.21171 1.88461 2.40554L4.66765 5.13769ZM7.43165 3.34174C8.45601 2.94516 9.65958 2.65329 11.5537 2.56437L11.3708 -1.33134C9.11138 -1.22527 7.48745 -0.861937 6.02361 -0.295215L7.43165 3.34174ZM11.5501 2.56453C12.0706 2.54105 12.4942 2.52199 12.9202 2.50677L12.781 -1.39075C12.3335 -1.37476 11.8913 -1.35483 11.3744 -1.33151L11.5501 2.56453ZM12.9109 2.50708L13.2892 2.49538L13.1687 -1.40276L12.7904 -1.39106L12.9109 2.50708ZM13.2764 2.49573C14.6804 2.46153 16.0847 2.44676 17.489 2.45145L17.502 -1.44853C16.0617 -1.45334 14.6214 -1.43819 13.1814 -1.40311L13.2764 2.49573ZM17.4965 2.45146L21.5057 2.44951L21.5038 -1.45049L17.4946 -1.44854L17.4965 2.45146ZM19.5001 8.29951C16.3971 8.29951 13.4212 9.53219 11.227 11.7264L13.9847 14.4841C15.4475 13.0213 17.4314 12.1995 19.5001 12.1995V8.29951ZM11.227 11.7264C9.03281 13.9205 7.80013 16.8965 7.80013 19.9995H11.7001C11.7001 17.9308 12.5219 15.9469 13.9847 14.4841L11.227 11.7264ZM7.80013 19.9995C7.80013 23.1025 9.03281 26.0785 11.227 28.2727L13.9847 25.5149C12.5219 24.0522 11.7001 22.0682 11.7001 19.9995H7.80013ZM11.227 28.2727C13.4212 30.4668 16.3971 31.6995 19.5001 31.6995V27.7995C17.4314 27.7995 15.4475 26.9777 13.9847 25.5149L11.227 28.2727ZM19.5001 31.6995C22.6032 31.6995 25.5791 30.4668 27.7733 28.2727L25.0156 25.5149C23.5528 26.9777 21.5688 27.7995 19.5001 27.7995V31.6995ZM27.7733 28.2727C29.9675 26.0785 31.2001 23.1025 31.2001 19.9995H27.3001C27.3001 22.0682 26.4783 24.0522 25.0156 25.5149L27.7733 28.2727ZM31.2001 19.9995C31.2001 16.8965 29.9675 13.9205 27.7733 11.7264L25.0156 14.4841C26.4783 15.9469 27.3001 17.9308 27.3001 19.9995H31.2001ZM27.7733 11.7264C25.5791 9.53219 22.6032 8.29951 19.5001 8.29951V12.1995C21.5688 12.1995 23.5528 13.0213 25.0156 14.4841L27.7733 11.7264ZM19.5005 16.0995C20.0126 16.0994 20.5198 16.2002 20.993 16.3961L22.4848 12.7928C21.5384 12.4009 20.5241 12.1993 19.4998 12.1995L19.5005 16.0995ZM20.993 16.3961C21.4662 16.592 21.8962 16.8792 22.2584 17.2413L25.0156 14.4832C24.2912 13.759 23.4312 13.1846 22.4848 12.7928L20.993 16.3961ZM22.2584 17.2413C22.6206 17.6034 22.9079 18.0333 23.104 18.5064L26.7069 17.0134C26.3147 16.0671 25.74 15.2073 25.0156 14.4832L22.2584 17.2413ZM23.104 18.5064C23.3001 18.9796 23.401 19.4867 23.4011 19.9989L27.3011 19.9982C27.3009 18.9739 27.099 17.9597 26.7069 17.0134L23.104 18.5064ZM23.4011 19.9989C23.4012 20.511 23.3004 21.0182 23.1045 21.4914L26.7079 22.9832C27.0997 22.0368 27.3013 21.0225 27.3011 19.9982L23.4011 19.9989ZM23.1045 21.4914C22.9086 21.9646 22.6214 22.3946 22.2593 22.7568L25.0175 25.514C25.7416 24.7896 26.316 23.9296 26.7079 22.9832L23.1045 21.4914ZM22.2593 22.7568C21.8972 23.119 21.4673 23.4063 20.9942 23.6024L22.4872 27.2053C23.4335 26.8131 24.2933 26.2384 25.0175 25.514L22.2593 22.7568ZM20.9942 23.6024C20.521 23.7985 20.0139 23.8994 19.5018 23.8995L19.5024 27.7995C20.5267 27.7993 21.541 27.5974 22.4872 27.2053L20.9942 23.6024ZM19.5021 23.8995C18.4677 23.8995 17.4758 23.4886 16.7444 22.7572L13.9867 25.5149C15.4494 26.9777 17.4334 27.7995 19.5021 27.7995V23.8995ZM16.7444 22.7572C16.013 22.0258 15.6021 21.0339 15.6021 19.9995H11.7021C11.7021 22.0682 12.5239 24.0522 13.9867 25.5149L16.7444 22.7572ZM15.6021 19.9995C15.6021 18.9652 16.013 17.9732 16.7444 17.2418L13.9867 14.4841C12.5239 15.9469 11.7021 17.9308 11.7021 19.9995H15.6021ZM16.7444 17.2418C17.4758 16.5104 18.4677 16.0995 19.5021 16.0995V12.1995C17.4334 12.1995 15.4494 13.0213 13.9867 14.4841L16.7444 17.2418ZM29.7396 5.37451C28.5759 5.37451 27.46 5.83677 26.6372 6.65958L29.3949 9.4173C29.4863 9.32587 29.6103 9.27451 29.7396 9.27451V5.37451ZM26.6372 6.65958C25.8143 7.48239 25.3521 8.59837 25.3521 9.76201H29.2521C29.2521 9.63272 29.3034 9.50872 29.3949 9.4173L26.6372 6.65958ZM25.3521 9.76201C25.3521 10.9257 25.8143 12.0416 26.6372 12.8644L29.3949 10.1067C29.3034 10.0153 29.2521 9.8913 29.2521 9.76201H25.3521ZM26.6372 12.8644C27.46 13.6873 28.5759 14.1495 29.7396 14.1495V10.2495C29.6103 10.2495 29.4863 10.1982 29.3949 10.1067L26.6372 12.8644ZM29.7396 14.1495C30.9032 14.1495 32.0192 13.6873 32.842 12.8644L30.0843 10.1067C29.9929 10.1981 29.8689 10.2495 29.7396 10.2495V14.1495ZM32.842 12.8644C33.6648 12.0416 34.1271 10.9256 34.1271 9.76201H30.2271C30.2271 9.89131 30.1757 10.0153 30.0843 10.1067L32.842 12.8644ZM34.1271 9.76201C34.1271 8.59838 33.6648 7.4824 32.842 6.65958L30.0843 9.4173C30.1757 9.50872 30.2271 9.63272 30.2271 9.76201H34.1271ZM32.842 6.65958C32.0192 5.83676 30.9032 5.37451 29.7396 5.37451V9.27451C29.8689 9.27451 29.9929 9.32587 30.0843 9.4173L32.842 6.65958Z" fill="#F5F5F5" mask="url(#path-1-inside-1_261_2552)"/>
</svg>
