<svg width="81" height="90" viewBox="0 0 81 90" fill="none" xmlns="http://www.w3.org/2000/svg">
<g clip-path="url(#clip0_292_2408)">
<path d="M71.1969 4.27862C66.6418 1.5251 60.9813 1.98691 55.3401 3.89733C49.6524 5.82352 43.5469 9.36255 37.6914 13.4357C25.9851 21.5788 14.8512 32.1635 9.3976 37.3852C2.2592 43.69 1.3363 52.6508 4.0287 60.9505C6.7161 69.2343 13.0639 77.1716 21.0361 81.991C29.0184 86.8162 38.9338 88.7004 47.6835 87.3223C56.4576 85.9404 64.294 81.2129 67.5336 72.6278C70.1627 65.6602 75.1209 51.309 77.5124 37.5008C78.7064 30.6072 79.2833 23.7269 78.5509 17.9211C77.8247 12.1641 75.7489 7.03039 71.1969 4.27862Z" fill="black" stroke="#1B6446" stroke-width="4"/>
<path d="M23.9439 49.0321C28.6096 41.8038 38.3303 39.589 45.6372 44.006C52.9441 48.423 55.1516 57.8484 50.4858 65.0767C45.8202 72.3051 36.0994 74.5198 28.7925 70.1029C21.4856 65.6859 19.2783 56.2605 23.9439 49.0321Z" fill="#FA5538" stroke="#FA5538" stroke-width="4"/>
</g>
<defs>
<clipPath id="clip0_292_2408">
<rect width="81" height="90" fill="white"/>
</clipPath>
</defs>
</svg>
