<svg width="16" height="16" viewBox="0 0 91 90" fill="none" xmlns="http://www.w3.org/2000/svg">
<path d="M7.51178 72.7298L7.50326 72.7439L7.49569 72.7585C6.75128 74.1928 6.15516 75.5837 5.70943 76.9311C4.23109 74.8792 3.02016 72.0829 2.09359 68.5159C1.19946 64.3484 0.750439 59.7421 0.75 54.6946C0.900229 49.6437 1.49959 44.3728 2.54941 38.8812C3.74756 33.256 5.54361 27.995 7.93642 23.0966C10.3272 18.2023 13.3134 13.8881 16.8942 10.1508C20.6084 6.28648 24.9879 3.49778 30.0381 1.78064C32.5593 0.923392 34.917 0.5 37.1143 0.5C41.245 0.5 45.076 1.56459 48.6167 3.69651L48.6167 3.69658L48.6244 3.70105C52.3316 5.84388 55.3669 8.62626 57.7361 12.0499L57.736 12.05L57.7419 12.0581C60.1065 15.3328 61.6621 19.1099 62.4039 23.3981C63.1415 27.6615 62.701 31.9274 61.0734 36.2049C59.455 40.3136 56.3537 44.2412 51.7266 47.9798L51.7266 47.9797L51.7204 47.9849C47.267 51.7031 41.0043 54.8001 32.9026 57.2576C27.7576 58.7157 23.5023 60.3243 20.1457 62.0881L20.1457 62.088L20.1372 62.0927C16.9517 63.8463 14.2854 65.6062 12.1443 67.3742L12.1373 67.38L12.1304 67.3861C10.1431 69.1534 8.5993 70.9338 7.51178 72.7298Z" fill="url(#paint0_linear_266_2438)" stroke="#26D9C7"/>
<path d="M8.81059 73.3311L8.79873 73.3424L8.78764 73.3546C7.69737 74.5473 6.76156 75.7366 5.9823 76.9226C5.08538 74.5581 4.63947 71.5436 4.66767 67.8584C4.88263 63.6015 5.64111 59.0359 6.94709 54.1602C8.39945 49.3204 10.3426 44.3842 12.778 39.3514C15.3912 34.2281 18.4877 29.6112 22.0668 25.4989C25.6428 21.3902 29.6439 17.9958 34.0699 15.3127C38.6577 12.5414 43.6098 10.9812 48.9323 10.6296C51.5895 10.4541 53.9764 10.6554 56.0988 11.2241C60.0888 12.2932 63.5137 14.313 66.3821 17.2887L66.382 17.2888L66.3883 17.2951C69.4146 20.3244 71.6263 23.7976 73.0287 27.7177L73.0286 27.7178L73.0321 27.7272C74.4687 31.5023 74.9936 35.5533 74.6003 39.8874C74.2093 44.1964 72.6797 48.2029 70.0005 51.9135C67.3738 55.4633 63.3616 58.4544 57.9246 60.868L57.9246 60.8679L57.9173 60.8713C52.6533 63.3103 45.8024 64.6808 37.3407 64.9577C31.9937 65.0344 27.467 65.4869 23.7683 66.3219L23.7683 66.3218L23.7589 66.3241C20.2281 67.1935 17.1972 68.2033 14.6714 69.3569L14.6631 69.3607L14.6549 69.3648C12.278 70.5575 10.3259 71.8777 8.81059 73.3311Z" fill="url(#paint1_linear_266_2438)" stroke="#26D9C7"/>
<path d="M9.92397 74.2467L9.90956 74.2546L9.89571 74.2634C8.5339 75.1333 7.32216 76.0399 6.26248 76.9838C6.00811 74.4677 6.3576 71.4405 7.33864 67.8882C8.64805 63.832 10.5623 59.6183 13.0857 55.2468C15.7413 50.9477 18.8958 46.6826 22.5508 42.4517C26.401 38.1792 30.5869 34.5211 35.1084 31.4753C39.6259 28.4321 44.3692 26.189 49.3389 24.7429C54.4876 23.2533 59.6747 23.028 64.9069 24.066C67.519 24.5842 69.7725 25.3964 71.6754 26.495C75.2527 28.5604 78.0381 31.3978 80.0386 35.0145L80.0385 35.0146L80.0429 35.0223C82.182 38.7316 83.4195 42.6589 83.7595 46.8084L83.7594 46.8084L83.7604 46.8184C84.1709 50.8367 83.6295 54.8855 82.1278 58.9702C80.6349 63.0312 78.1204 66.5053 74.5721 69.396C71.1162 72.145 66.4666 73.9957 60.5902 74.9199L60.5902 74.9199L60.5823 74.9212C54.8664 75.9146 47.8942 75.4653 39.6491 73.5427C34.4645 72.233 29.9749 71.4984 26.1862 71.3476L26.1862 71.3475L26.1765 71.3473C22.541 71.2733 19.352 71.4642 16.6137 71.9248L16.6047 71.9263L16.5957 71.9282C13.991 72.465 11.7638 73.235 9.92397 74.2467Z" fill="url(#paint2_linear_266_2438)" stroke="#26D9C7"/>
<path d="M10.7569 75.4127L10.7409 75.4166L10.7253 75.4216C9.18469 75.9094 7.77961 76.4714 6.51173 77.109C6.91725 74.6128 8.03832 71.7792 9.90535 68.6018C12.22 65.0227 15.1596 61.448 18.7285 57.8785C22.4062 54.4133 26.5571 51.11 31.1826 47.9692C36.0074 44.8388 40.9975 42.3887 46.1532 40.617C51.3045 38.8467 56.4666 37.9076 61.6413 37.797C67.0001 37.6909 72.0688 38.8157 76.854 41.1725C79.243 42.3492 81.2095 43.7169 82.7632 45.2706C85.6841 48.1915 87.6402 51.6532 88.6364 55.6644L88.6363 55.6644L88.6386 55.673C89.7448 59.8096 89.9236 63.9233 89.178 68.0195L89.1779 68.0194L89.1763 68.0293C88.5329 72.017 86.962 75.7877 84.4543 79.3445C81.9612 82.8807 78.6332 85.5857 74.4577 87.4595C70.408 89.2204 65.4378 89.8046 59.5225 89.1764L59.5225 89.1764L59.5144 89.1756C53.7362 88.6558 47.1179 86.4172 39.6514 82.4262C34.9824 79.8192 30.8359 77.9477 27.2153 76.8215L27.2153 76.8214L27.206 76.8187C23.7136 75.8062 20.5838 75.1653 17.8196 74.9014L17.8105 74.9006L17.8013 74.9C15.1465 74.7444 12.7959 74.9117 10.7569 75.4127Z" fill="url(#paint3_linear_266_2438)" stroke="#26D9C7"/>
<defs>
<linearGradient id="paint0_linear_266_2438" x1="9.11261" y1="14.7595" x2="55.3874" y2="43.7405" gradientUnits="userSpaceOnUse">
<stop offset="0.1" stop-color="#072B27"/>
<stop offset="0.2" stop-color="#0F564F"/>
<stop offset="0.3" stop-color="#26D9C7"/>
<stop offset="0.4" stop-color="#93ECE2"/>
<stop offset="0.5" stop-color="#D4F7F4"/>
<stop offset="0.6" stop-color="#93ECE2"/>
<stop offset="0.7" stop-color="#26D9C7"/>
<stop offset="0.8" stop-color="#0F564F"/>
<stop offset="0.9" stop-color="#072B27"/>
</linearGradient>
<linearGradient id="paint1_linear_266_2438" x1="25.3607" y1="17.7504" x2="62.5579" y2="57.7206" gradientUnits="userSpaceOnUse">
<stop offset="0.1" stop-color="#072B27"/>
<stop offset="0.2" stop-color="#0F564F"/>
<stop offset="0.3" stop-color="#26D9C7"/>
<stop offset="0.4" stop-color="#93ECE2"/>
<stop offset="0.5" stop-color="#D4F7F4"/>
<stop offset="0.6" stop-color="#93ECE2"/>
<stop offset="0.7" stop-color="#26D9C7"/>
<stop offset="0.8" stop-color="#0F564F"/>
<stop offset="0.9" stop-color="#072B27"/>
</linearGradient>
<linearGradient id="paint2_linear_266_2438" x1="40.2955" y1="24.8433" x2="65.8801" y2="73.0789" gradientUnits="userSpaceOnUse">
<stop offset="0.1" stop-color="#072B27"/>
<stop offset="0.2" stop-color="#0F564F"/>
<stop offset="0.3" stop-color="#26D9C7"/>
<stop offset="0.4" stop-color="#93ECE2"/>
<stop offset="0.5" stop-color="#D4F7F4"/>
<stop offset="0.6" stop-color="#93ECE2"/>
<stop offset="0.7" stop-color="#26D9C7"/>
<stop offset="0.8" stop-color="#0F564F"/>
<stop offset="0.9" stop-color="#072B27"/>
</linearGradient>
<linearGradient id="paint3_linear_266_2438" x1="52.8801" y1="35.5535" x2="65.1086" y2="88.7673" gradientUnits="userSpaceOnUse">
<stop offset="0.1" stop-color="#072B27"/>
<stop offset="0.2" stop-color="#0F564F"/>
<stop offset="0.3" stop-color="#26D9C7"/>
<stop offset="0.4" stop-color="#93ECE2"/>
<stop offset="0.5" stop-color="#D4F7F4"/>
<stop offset="0.6" stop-color="#93ECE2"/>
<stop offset="0.7" stop-color="#26D9C7"/>
<stop offset="0.8" stop-color="#0F564F"/>
<stop offset="0.9" stop-color="#072B27"/>
</linearGradient>
</defs>
</svg>
