<svg width="91" height="90" viewBox="0 0 91 90" fill="none" xmlns="http://www.w3.org/2000/svg">
<path fill-rule="evenodd" clip-rule="evenodd" d="M6.19462 72.0091L6.22867 71.9529C7.41249 69.9978 9.06468 68.1051 11.1337 66.2652L11.161 66.2409L11.1892 66.2176C13.4212 64.3746 16.1707 62.564 19.4138 60.7787L19.4308 60.7693L19.448 60.7603C22.9231 58.9342 27.2794 57.2928 32.4803 55.8182C40.4615 53.396 46.515 50.3769 50.7591 46.8335L50.7714 46.8232L50.7839 46.8131C55.2699 43.1884 58.1765 39.4614 59.6746 35.6631C61.2093 31.6257 61.6146 27.6347 60.9259 23.6538C60.22 19.5735 58.7473 16.0127 56.5258 12.9362L56.514 12.92L56.5026 12.9035C54.263 9.66703 51.3944 7.03474 47.8738 4.99971L47.8583 4.99077L47.843 4.98155C44.5357 2.9902 40.9722 2 37.1143 2C35.1099 2 32.9164 2.38631 30.5209 3.2008C25.6996 4.84011 21.5256 7.49726 17.9772 11.1887C14.5091 14.8083 11.6103 18.993 9.28421 23.7549C6.95011 28.5332 5.19378 33.6723 4.01977 39.1783C2.98676 44.586 2.3986 49.7648 2.25001 54.7168C2.25176 59.6552 2.69082 64.1364 3.55348 68.1698C4.09886 70.2627 4.73575 72.041 5.44906 73.5275C5.67154 73.0441 5.91007 72.5574 6.16433 72.0675L6.19462 72.0091ZM6.68699 75.7108C6.37654 76.4897 6.11555 77.2528 5.90403 78C5.3946 77.3865 4.91505 76.6982 4.46539 75.9351C3.31802 73.9878 2.36522 71.5532 1.60696 68.6313C0.702319 64.419 0.25 59.7709 0.25 54.6871C0.400773 49.6033 1.00387 44.3017 2.05929 38.7821C3.26548 33.1173 5.07477 27.8156 7.48716 22.8771C9.89954 17.9385 12.915 13.581 16.5336 9.80447C20.3029 5.88268 24.7508 3.05028 29.8771 1.30726C32.4403 0.435753 34.8526 0 37.1143 0C41.3359 0 45.2561 1.08939 48.8746 3.26816C52.644 5.44693 55.7348 8.27933 58.1472 11.7654C60.5596 15.1062 62.1428 18.9553 62.8966 23.3129C63.6505 27.6704 63.1982 32.0279 61.5397 36.3855C59.8811 40.5978 56.7149 44.5922 52.0409 48.3687C47.5177 52.1452 41.1852 55.2682 33.0434 57.7374C27.917 59.1899 23.6954 60.7877 20.3783 62.5307C17.2121 64.2737 14.5735 66.0168 12.4627 67.7598C10.5026 69.5028 8.9949 71.2458 7.93948 72.9888C7.45789 73.9167 7.0404 74.824 6.68699 75.7108Z" fill="url(#paint0_linear_266_2578)"/>
<path fill-rule="evenodd" clip-rule="evenodd" d="M7.72484 72.294L7.77229 72.2485C9.42178 70.6665 11.5076 69.2658 13.9822 68.0241L14.0149 68.0077L14.0482 67.9925C16.6811 66.79 19.8056 65.7527 23.4003 64.8676L23.4191 64.863L23.438 64.8587C27.2673 63.9943 31.9001 63.5363 37.3054 63.458C45.6416 63.184 52.2702 61.8346 57.2867 59.5103L57.3013 59.5036L57.316 59.497C62.5873 57.157 66.3595 54.3092 68.7896 51.0281C71.317 47.5254 72.7414 43.7754 73.1065 39.7518C73.4807 35.6278 72.9798 31.8073 71.6302 28.2606L71.6231 28.2419L71.6163 28.223C70.2906 24.5172 68.2011 21.2321 65.3271 18.3552L65.3145 18.3426L65.3021 18.3297C62.6229 15.5502 59.4371 13.6715 55.7106 12.673C53.7746 12.1542 51.5558 11.9596 49.0312 12.1264C43.9498 12.462 39.2304 13.9483 34.8474 16.5955C30.5606 19.1942 26.6776 22.486 23.1983 26.4837C19.707 30.495 16.6804 35.0044 14.1214 40.0189C11.7239 44.975 9.81542 49.8252 8.39023 54.57C7.11376 59.3406 6.37805 63.7827 6.16739 67.9019C6.1525 70.0647 6.30745 71.9472 6.61171 73.5677C6.95173 73.1583 7.30809 72.7499 7.68048 72.3425L7.72484 72.294ZM7.24239 75.997C6.74091 76.669 6.29131 77.3385 5.8936 78.0055C5.56031 77.2811 5.27525 76.4921 5.03843 75.6386C4.43416 73.4607 4.14393 70.8625 4.16776 67.8439C4.38417 63.541 5.15026 58.9343 6.46604 54.0237C7.92746 49.1521 9.88218 44.1872 12.3302 39.1289C14.9615 33.9693 18.0813 29.3165 21.6896 25.1706C25.298 21.0247 29.3386 17.5961 33.8113 14.8848C38.4672 12.0723 43.4966 10.4876 48.8994 10.1307C51.6007 9.95231 54.0437 10.1558 56.2283 10.7411C60.3061 11.8338 63.8107 13.9006 66.742 16.9417C69.8191 20.0218 72.0715 23.5577 73.4994 27.5493C74.965 31.4006 75.4979 35.5284 75.0983 39.9326C74.6987 44.3368 73.1339 48.4287 70.4041 52.2086C67.7119 55.8481 63.6197 58.8869 58.1275 61.325C52.781 63.8022 45.856 65.1797 37.3525 65.4576C32.0249 65.5338 27.5336 65.9845 23.8784 66.8096C20.369 67.6737 17.3692 68.6744 14.8792 69.8117C12.5348 70.9881 10.6273 72.2815 9.15669 73.6919C8.45135 74.4636 7.81325 75.2319 7.24239 75.997Z" fill="url(#paint1_linear_266_2578)"/>
<path fill-rule="evenodd" clip-rule="evenodd" d="M9.14362 72.9639L9.20123 72.9323C11.204 71.831 13.5812 71.018 16.2929 70.4591L16.3288 70.4517L16.3649 70.4456C19.2193 69.9655 22.5058 69.7722 26.207 69.8477L26.2264 69.8481L26.2458 69.8488C30.1684 70.0049 34.7618 70.7616 40.0031 72.085C48.1262 73.9779 54.8782 74.3901 60.3254 73.4434L60.3413 73.4406L60.3571 73.4381C66.0542 72.5421 70.4349 70.7678 73.6314 68.2276C76.9793 65.4984 79.3259 62.2447 80.72 58.4526C82.1488 54.566 82.6538 50.746 82.2681 46.9709L82.2661 46.9509L82.2645 46.9309C81.9431 43.0083 80.775 39.2944 78.7435 35.7716L78.7346 35.7562L78.726 35.7405C76.8574 32.3623 74.2664 29.723 70.9254 27.7941C69.1896 26.7919 67.0968 26.0297 64.615 25.5373C59.6199 24.5463 54.6766 24.7605 49.7578 26.1832C44.9446 27.5838 40.3419 29.7584 35.9464 32.7194C31.5359 35.6904 27.4453 39.2628 23.6756 43.4441C20.0771 47.6108 16.9783 51.8018 14.3737 56.016C11.906 60.2937 10.0456 64.394 8.776 68.3184C8.20184 70.4036 7.86429 72.2621 7.73876 73.9061C8.17316 73.5987 8.62307 73.2965 9.08821 72.9993L9.14362 72.9639ZM7.71922 76.4158C7.06088 76.9352 6.45332 77.4655 5.89654 78.0069C5.76209 77.2209 5.69095 76.385 5.68311 75.4993C5.6631 73.2392 6.05524 70.6544 6.85953 67.7448C8.18223 63.6445 10.1145 59.393 12.6564 54.9903C15.3289 50.663 18.502 46.3732 22.1758 42.1208C26.0528 37.8181 30.2706 34.1313 34.829 31.0606C39.3875 27.9899 44.1777 25.7239 49.1998 24.2626C54.425 22.7509 59.6932 22.5219 65.0042 23.5756C67.6597 24.1024 69.9668 24.9312 71.9254 26.062C75.5815 28.1728 78.4317 31.0763 80.4761 34.7725C82.6511 38.5441 83.9116 42.5424 84.2578 46.7676C84.6766 50.867 84.123 54.992 82.5971 59.1427C81.0712 63.2934 78.5007 66.841 74.8857 69.7855C71.3432 72.6041 66.6039 74.4803 60.6679 75.4139C54.8624 76.4228 47.8168 75.9611 39.5312 74.0286C34.3654 72.7234 29.9104 71.9963 26.1663 71.8472C22.5527 71.7736 19.3962 71.9638 16.6966 72.4179C14.1277 72.9474 11.9504 73.703 10.1649 74.6848C9.28386 75.2476 8.46864 75.8246 7.71922 76.4158Z" fill="url(#paint2_linear_266_2578)"/>
<path fill-rule="evenodd" clip-rule="evenodd" d="M10.3351 73.9717L10.399 73.956C12.6185 73.4107 15.1252 73.2406 17.8891 73.4026L17.9257 73.4047L17.9621 73.4082C20.8435 73.6832 24.0681 74.3472 27.6237 75.378L27.6423 75.3834L27.6608 75.3891C31.4093 76.5552 35.6504 78.4749 40.3706 81.1098C47.727 85.0406 54.1423 87.1863 59.6489 87.6817L59.6649 87.6831L59.6809 87.6848C65.4159 88.2939 70.1066 87.7137 73.8517 86.0873C77.7918 84.3176 80.9004 81.7821 83.2284 78.4802C85.6145 75.0958 87.091 71.5367 87.6955 67.7904L87.6987 67.7706L87.7023 67.7508C88.4071 63.8787 88.2401 59.989 87.1896 56.0605L87.1849 56.0433L87.1806 56.0259C86.2501 52.2792 84.4305 49.0593 81.7026 46.3313C80.2853 44.914 78.4611 43.6361 76.1913 42.5182C71.6228 40.2681 66.7923 39.1955 61.6728 39.2967C56.6612 39.4039 51.6526 40.3132 46.6407 42.0355C41.6115 43.7638 36.7357 46.1558 32.0122 49.219C27.4579 52.3123 23.3801 55.5584 19.7734 58.9549C16.2826 62.4482 13.4244 65.9273 11.1824 69.3893C10.0881 71.2549 9.28104 72.9627 8.73429 74.5182C9.23345 74.3337 9.74625 74.1582 10.2725 73.9916L10.3351 73.9717ZM8.06584 76.9373C7.29551 77.2686 6.57139 77.6237 5.89348 78.0024C5.96704 77.2084 6.11466 76.3826 6.33633 75.525C6.90196 73.3368 7.94974 70.9415 9.47968 68.3393C11.8185 64.721 14.7854 61.1145 18.3801 57.5198C22.0815 54.0316 26.2569 50.7092 30.9061 47.5526C35.7646 44.3998 40.7928 41.9304 45.9907 40.1441C51.1886 38.3578 56.4021 37.4088 61.6312 37.2971C67.0697 37.1894 72.2176 38.3316 77.075 40.724C79.5036 41.9202 81.5176 43.3179 83.1168 44.9171C86.1019 47.9022 88.1036 51.4445 89.1217 55.5438C90.2464 59.7498 90.4291 63.9382 89.67 68.109C89.0135 72.1771 87.4112 76.0183 84.863 79.6326C82.3148 83.2469 78.9137 86.0084 74.6597 87.9169C70.5084 89.7226 65.4451 90.3082 59.4696 89.6736C53.6008 89.1456 46.9148 86.8761 39.4117 82.865C34.7597 80.2673 30.6448 78.4119 27.0668 77.2989C23.5954 76.2925 20.4972 75.6593 17.7721 75.3992C15.1536 75.2457 12.855 75.4121 10.8762 75.8983C9.87954 76.2139 8.94275 76.5602 8.06584 76.9373Z" fill="url(#paint3_linear_266_2578)"/>
<defs>
<linearGradient id="paint0_linear_266_2578" x1="9.85366" y1="-22.5712" x2="71.7521" y2="-4.97062" gradientUnits="userSpaceOnUse">
<stop offset="0.15" stop-color="#D4F7F4"/>
<stop offset="0.3" stop-color="#93ECE2"/>
<stop offset="0.4" stop-color="#26D9C7"/>
<stop offset="0.5" stop-color="#0F564F"/>
<stop offset="0.6" stop-color="#26D9C7"/>
<stop offset="0.7" stop-color="#93ECE2"/>
<stop offset="0.85" stop-color="#D4F7F4"/>
</linearGradient>
<linearGradient id="paint1_linear_266_2578" x1="35.7384" y1="-18.1165" x2="90.9723" y2="14.9048" gradientUnits="userSpaceOnUse">
<stop offset="0.15" stop-color="#D4F7F4"/>
<stop offset="0.3" stop-color="#93ECE2"/>
<stop offset="0.4" stop-color="#26D9C7"/>
<stop offset="0.5" stop-color="#0F564F"/>
<stop offset="0.6" stop-color="#26D9C7"/>
<stop offset="0.7" stop-color="#93ECE2"/>
<stop offset="0.85" stop-color="#D4F7F4"/>
</linearGradient>
<linearGradient id="paint2_linear_266_2578" x1="59.6026" y1="-7.11552" x2="104.408" y2="39.0762" gradientUnits="userSpaceOnUse">
<stop offset="0.15" stop-color="#D4F7F4"/>
<stop offset="0.3" stop-color="#93ECE2"/>
<stop offset="0.4" stop-color="#26D9C7"/>
<stop offset="0.5" stop-color="#0F564F"/>
<stop offset="0.6" stop-color="#26D9C7"/>
<stop offset="0.7" stop-color="#93ECE2"/>
<stop offset="0.85" stop-color="#D4F7F4"/>
</linearGradient>
<linearGradient id="paint3_linear_266_2578" x1="79.8009" y1="9.68066" x2="111.124" y2="65.8949" gradientUnits="userSpaceOnUse">
<stop offset="0.15" stop-color="#D4F7F4"/>
<stop offset="0.3" stop-color="#93ECE2"/>
<stop offset="0.4" stop-color="#26D9C7"/>
<stop offset="0.5" stop-color="#0F564F"/>
<stop offset="0.6" stop-color="#26D9C7"/>
<stop offset="0.7" stop-color="#93ECE2"/>
<stop offset="0.85" stop-color="#D4F7F4"/>
</linearGradient>
</defs>
</svg>
