<svg width="49" height="60" viewBox="0 0 49 60" fill="none" xmlns="http://www.w3.org/2000/svg">
<mask id="mask0_312_2905" style="mask-type:alpha" maskUnits="userSpaceOnUse" x="0" y="0" width="49" height="60">
<path d="M6.32133 55.2974L6.31495 55.3079L6.30927 55.3189C5.75096 56.3946 5.30387 57.4378 4.96957 58.4483C3.86082 56.9094 2.95262 54.8121 2.25769 52.1369C1.58709 49.0113 1.25033 45.5566 1.25 41.7709C1.36267 37.9828 1.81219 34.0296 2.59956 29.9109C3.49817 25.692 4.84521 21.7463 6.63982 18.0724C8.43288 14.4017 10.6725 11.166 13.3581 8.36312C16.1438 5.46485 19.4284 3.37334 23.216 2.08548C25.107 1.44254 26.8752 1.125 28.5232 1.125C31.6212 1.125 34.4945 1.92344 37.15 3.52238L37.15 3.52243L37.1558 3.52579C39.9362 5.13291 42.2127 7.21969 43.9896 9.78742L43.9895 9.78746L43.9939 9.79356C45.7674 12.2496 46.934 15.0824 47.4905 18.2986C48.0436 21.4961 47.7132 24.6955 46.4926 27.9037C45.2787 30.9852 42.9528 33.9309 39.4825 36.7348L39.4825 36.7348L39.4778 36.7387C36.1378 39.5274 31.4407 41.8501 25.3645 43.6932C21.5058 44.7867 18.3142 45.9932 15.7968 47.3161L15.7968 47.316L15.7904 47.3195C13.4013 48.6347 11.4016 49.9547 9.79575 51.2807L9.79559 51.2805L9.78533 51.2896C8.29486 52.615 7.13697 53.9504 6.32133 55.2974Z" fill="#FF0000" stroke="#072B27" stroke-width="0.75"/>
</mask>
<g mask="url(#mask0_312_2905)">
<path d="M6.32133 55.2974L6.31495 55.3079L6.30927 55.3189C5.75096 56.3946 5.30387 57.4378 4.96957 58.4483C3.86082 56.9094 2.95262 54.8121 2.25769 52.1369C1.58709 49.0113 1.25033 45.5566 1.25 41.7709C1.36267 37.9828 1.81219 34.0296 2.59956 29.9109C3.49817 25.692 4.84521 21.7463 6.63982 18.0724C8.43288 14.4017 10.6725 11.166 13.3581 8.36312C16.1438 5.46485 19.4284 3.37334 23.216 2.08548C25.107 1.44254 26.8752 1.125 28.5232 1.125C31.6212 1.125 34.4945 1.92344 37.15 3.52238L37.15 3.52243L37.1558 3.52579C39.9362 5.13291 42.2127 7.21969 43.9896 9.78742L43.9895 9.78746L43.9939 9.79356C45.7674 12.2496 46.934 15.0824 47.4905 18.2986C48.0436 21.4961 47.7132 24.6955 46.4926 27.9037C45.2787 30.9852 42.9528 33.9309 39.4825 36.7348L39.4825 36.7348L39.4778 36.7387C36.1378 39.5274 31.4407 41.8501 25.3645 43.6932C21.5058 44.7867 18.3142 45.9932 15.7968 47.3161L15.7968 47.316L15.7904 47.3195C13.4013 48.6347 11.4016 49.9547 9.79575 51.2807L9.79559 51.2805L9.78533 51.2896C8.29486 52.615 7.13697 53.9504 6.32133 55.2974Z" fill="url(#paint0_linear_312_2905)" stroke="#26D9C7" stroke-width="0.75"/>
<path d="M7.2952 55.7482L7.2863 55.7568L7.27798 55.7659C6.46029 56.6604 5.75843 57.5524 5.17398 58.4419C4.50129 56.6685 4.16686 54.4076 4.18801 51.6437C4.34923 48.451 4.91809 45.0269 5.89757 41.3701C6.98684 37.7402 8.44421 34.0381 10.2708 30.2635C12.2307 26.421 14.553 22.9583 17.2374 19.8741C19.9194 16.7926 22.9202 14.2468 26.2397 12.2345C29.6806 10.156 33.3946 8.98582 37.3865 8.72217C39.3794 8.59054 41.1696 8.74148 42.7614 9.168C45.7539 9.96984 48.3226 11.4847 50.4738 13.7165L50.4738 13.7165L50.4785 13.7213C52.7482 15.9933 54.407 18.5981 55.4588 21.5382L55.4587 21.5383L55.4614 21.5453C56.5388 24.3767 56.9325 27.4149 56.6375 30.6655C56.3443 33.8972 55.197 36.9021 53.1876 39.685C51.2176 42.3474 48.2085 44.5907 44.1307 46.4009L44.1307 46.4009L44.1253 46.4034C40.1773 48.2326 35.0391 49.2605 28.6928 49.4682C24.6826 49.5258 21.2875 49.8651 18.5135 50.4913L18.5135 50.4913L18.5064 50.493C15.8583 51.145 13.5851 51.9024 11.6908 52.7676L11.6907 52.7674L11.6784 52.7736C9.89572 53.6681 8.43168 54.6582 7.2952 55.7482Z" fill="url(#paint1_linear_312_2905)" stroke="#26D9C7" stroke-width="0.75"/>
<path d="M8.13047 56.435L8.11967 56.4409L8.10928 56.4476C7.08792 57.1 6.17912 57.7799 5.38436 58.4879C5.19358 56.6008 5.4557 54.3304 6.19149 51.6661C7.17355 48.624 8.60926 45.4637 10.5018 42.1851C12.4934 38.9608 14.8593 35.762 17.6006 32.5887C20.4882 29.3844 23.6277 26.6408 27.0188 24.3565C30.407 22.074 33.9645 20.3917 37.6919 19.3071C41.5534 18.19 45.4436 18.021 49.3677 18.7995C51.3267 19.1882 53.0168 19.7973 54.444 20.6213C57.127 22.1703 59.2161 24.2984 60.7164 27.0109L60.7164 27.0109L60.7197 27.0167C62.324 29.7987 63.2521 32.7442 63.5071 35.8563L63.507 35.8563L63.5078 35.8638C63.8157 38.8776 63.4096 41.9141 62.2834 44.9776C61.1637 48.0234 59.2778 50.6289 56.6166 52.7969C54.0247 54.8587 50.5375 56.2468 46.1301 56.9399L46.1301 56.9399L46.1242 56.9409C41.8373 57.686 36.6082 57.349 30.4244 55.9071C26.5359 54.9247 23.1687 54.3738 20.3271 54.2607L20.3271 54.2607L20.3199 54.2605C17.5932 54.205 15.2015 54.3482 13.1478 54.6936L13.1477 54.6934L13.1343 54.6961C11.1808 55.0988 9.51035 55.6763 8.13047 56.435Z" fill="url(#paint2_linear_312_2905)" stroke="#26D9C7" stroke-width="0.75"/>
<path d="M8.75541 57.3097L8.74344 57.3126L8.73169 57.3163C7.57626 57.6822 6.52246 58.1037 5.57154 58.5819C5.87568 56.7097 6.71649 54.5845 8.11676 52.2014C9.85274 49.5171 12.0575 46.8361 14.7341 44.159C17.4924 41.5601 20.6056 39.0826 24.0747 36.727C27.6933 34.3792 31.4359 32.5417 35.3026 31.2128C39.1661 29.8851 43.0377 29.1808 46.9187 29.0979C50.9379 29.0183 54.7393 29.8619 58.3283 31.6295C60.12 32.512 61.5949 33.5378 62.7602 34.7031C64.9508 36.8937 66.4179 39.49 67.1651 42.4984L67.165 42.4984L67.1667 42.5049C67.9964 45.6073 68.1305 48.6926 67.5713 51.7647L67.5712 51.7647L67.57 51.7721C67.0874 54.7629 65.9092 57.5909 64.0285 60.2585C62.1587 62.9107 59.6627 64.9394 56.531 66.3447C53.4938 67.6654 49.7661 68.1036 45.3296 67.6324L45.3296 67.6324L45.3236 67.6319C40.9899 67.242 36.0262 65.5631 30.4263 62.5698C26.9246 60.6145 23.8147 59.2109 21.0992 58.3662L21.0992 58.3661L21.0922 58.3641C18.4729 57.6048 16.1256 57.1241 14.0524 56.9262L14.0525 56.9259L14.0388 56.9251C12.0476 56.8084 10.2846 56.9339 8.75541 57.3097Z" fill="url(#paint3_linear_312_2905)" stroke="#26D9C7" stroke-width="0.75"/>
</g>
<defs>
<linearGradient id="paint0_linear_312_2905" x1="7.52196" y1="11.8196" x2="42.228" y2="33.5554" gradientUnits="userSpaceOnUse">
<stop offset="0.1" stop-color="#072B27"/>
<stop offset="0.2" stop-color="#0F564F"/>
<stop offset="0.3" stop-color="#26D9C7"/>
<stop offset="0.4" stop-color="#93ECE2"/>
<stop offset="0.5" stop-color="#D4F7F4"/>
<stop offset="0.6" stop-color="#93ECE2"/>
<stop offset="0.7" stop-color="#26D9C7"/>
<stop offset="0.8" stop-color="#0F564F"/>
<stop offset="0.9" stop-color="#072B27"/>
</linearGradient>
<linearGradient id="paint1_linear_312_2905" x1="19.7078" y1="14.0627" x2="47.6057" y2="44.0404" gradientUnits="userSpaceOnUse">
<stop offset="0.1" stop-color="#072B27"/>
<stop offset="0.2" stop-color="#0F564F"/>
<stop offset="0.3" stop-color="#26D9C7"/>
<stop offset="0.4" stop-color="#93ECE2"/>
<stop offset="0.5" stop-color="#D4F7F4"/>
<stop offset="0.6" stop-color="#93ECE2"/>
<stop offset="0.7" stop-color="#26D9C7"/>
<stop offset="0.8" stop-color="#0F564F"/>
<stop offset="0.9" stop-color="#072B27"/>
</linearGradient>
<linearGradient id="paint2_linear_312_2905" x1="30.9091" y1="19.3825" x2="50.0976" y2="55.5592" gradientUnits="userSpaceOnUse">
<stop offset="0.1" stop-color="#072B27"/>
<stop offset="0.2" stop-color="#0F564F"/>
<stop offset="0.3" stop-color="#26D9C7"/>
<stop offset="0.4" stop-color="#93ECE2"/>
<stop offset="0.5" stop-color="#D4F7F4"/>
<stop offset="0.6" stop-color="#93ECE2"/>
<stop offset="0.7" stop-color="#26D9C7"/>
<stop offset="0.8" stop-color="#0F564F"/>
<stop offset="0.9" stop-color="#072B27"/>
</linearGradient>
<linearGradient id="paint3_linear_312_2905" x1="40.3478" y1="27.4152" x2="49.5192" y2="67.3256" gradientUnits="userSpaceOnUse">
<stop offset="0.1" stop-color="#072B27"/>
<stop offset="0.2" stop-color="#0F564F"/>
<stop offset="0.3" stop-color="#26D9C7"/>
<stop offset="0.4" stop-color="#93ECE2"/>
<stop offset="0.5" stop-color="#D4F7F4"/>
<stop offset="0.6" stop-color="#93ECE2"/>
<stop offset="0.7" stop-color="#26D9C7"/>
<stop offset="0.8" stop-color="#0F564F"/>
<stop offset="0.9" stop-color="#072B27"/>
</linearGradient>
</defs>
</svg>
