<svg width="288" height="96" viewBox="0 0 288 96" fill="none" xmlns="http://www.w3.org/2000/svg">
<path fill-rule="evenodd" clip-rule="evenodd" d="M252.242 26.1194C237.236 28.42 222.983 40.91 224.346 63.0366C225.609 82.9584 239.126 92.4753 253.021 92.4753C263.242 92.4753 273.594 87.3765 279.555 77.4661C281.845 73.6575 283.487 69.1383 284.223 63.9248C281.901 68.6664 279.35 72.44 276.693 75.3985C270.534 82.2574 263.811 84.7349 258.074 84.7349C250.748 84.7349 245.063 80.6744 244.305 76.7408C244.277 76.5916 244.252 76.4446 244.23 76.2996C244.127 75.6271 244.087 74.9989 244.104 74.4116C244.255 69.2878 248.801 67.2726 254.792 66.1018C257.128 65.6455 259.683 65.3175 262.282 64.9837C273.684 63.5198 285.95 61.945 284.35 48.9517C283.027 38.0535 276.653 31.053 268.54 27.8206C265.491 26.6058 262.197 25.9232 258.832 25.766C258.328 25.7424 257.823 25.7306 257.316 25.7306C256.131 25.7306 254.94 25.7948 253.75 25.9227C253.738 25.9241 253.725 25.9255 253.713 25.9268C253.222 25.9802 252.732 26.0444 252.242 26.1194ZM253.23 29.5369C239.587 35.8521 236.315 58.3932 239.398 69.2851C239.766 70.5844 240.224 71.7179 240.766 72.6383C240.966 72.9782 241.177 73.2891 241.4 73.5685C241.771 72.3655 242.305 71.0675 243.252 69.7411C244.953 67.3591 247.989 64.8854 253.815 62.7053C254.668 62.386 255.581 62.0731 256.558 61.7677C278.375 54.9005 275.867 37.6655 266.802 30.9149C264.477 29.1833 261.721 28.1416 258.832 28.1416C258.343 28.1416 257.836 28.1796 257.316 28.2556C256.494 28.376 255.642 28.5918 254.79 28.9029C254.255 29.091 253.736 29.3028 253.23 29.5369ZM255.513 58.4031C261.854 56.4066 265.591 53.5857 267.641 50.7855C269.666 48.018 270.225 45.0323 269.81 42.2395C268.931 36.3254 263.872 31.6663 258.832 31.6663C258.022 31.6663 257.038 31.8323 255.989 32.2155L255.95 32.2296C249.068 34.6517 244.627 42.3283 242.768 51.3771C241.863 55.7788 241.647 60.2015 241.994 63.904C242.049 64.4919 242.117 65.0487 242.195 65.5741C242.38 65.389 242.573 65.2042 242.773 65.0199C245.5 62.5138 249.521 60.2758 255.513 58.4031ZM287.833 48.525C288.276 52.1322 287.841 55.3024 286.48 58.0036C285.478 59.9924 284.061 61.5546 282.428 62.7879L287.698 64.42C284.784 85.0492 268.803 96 253.021 96C245.284 96 237.557 93.3476 231.572 87.8217C225.556 82.2671 221.526 74.019 220.844 63.2606L220.844 63.2542C220.026 49.986 224.436 39.6422 231.553 32.635C238.605 25.6927 248.13 22.2059 257.316 22.2059C271.578 22.2059 285.679 30.7795 287.833 48.525ZM280.106 64.2635C275.569 66.6894 269.664 67.571 264.546 68.2445C263.947 68.3234 263.357 68.3996 262.779 68.4744C257.848 69.112 253.718 69.6461 250.792 70.8703C249.248 71.5162 248.46 72.1984 248.068 72.8235C247.725 73.371 247.42 74.2966 247.751 76.0772C247.879 76.7255 248.615 78.0027 250.569 79.2131C252.431 80.3669 255.043 81.2102 258.074 81.2102C264.348 81.2102 273.007 77.5516 280.106 64.2635Z" fill="url(#paint0_linear_267_2859)"/>
<path fill-rule="evenodd" clip-rule="evenodd" d="M162.198 36.1084C162.229 36.1946 162.263 36.2875 162.297 36.3895C162.686 36.1944 163.066 36.0326 163.433 35.8999C163.949 35.7138 164.44 35.5848 164.894 35.5012C164.934 35.494 164.973 35.487 165.012 35.4804C165.199 35.4489 165.379 35.425 165.552 35.408C165.637 35.3996 165.72 35.3928 165.802 35.3877C165.945 35.3786 166.082 35.3744 166.213 35.3744C167.982 35.3744 169.118 36.1357 169.75 37.4046C169.794 37.5028 169.835 37.5907 169.875 37.6746C170.297 38.5668 170.508 39.0129 170.508 46.6676V80.1668C170.508 83.3366 169.471 86.3966 167.935 88.9505C167.134 90.2816 166.198 91.4753 165.202 92.4753H191.478C190.504 91.4967 189.576 90.3 188.777 88.9505C187.296 86.4501 186.254 83.4254 186.172 80.2937V63.5441C186.172 42.0996 195.773 33.0903 203.984 33.0903C206.872 33.0903 209.503 34.1916 211.506 36.2091C212.307 37.0152 213.008 37.9675 213.585 39.0542L224.196 30.4256C223.291 29.5798 222.302 28.8733 221.251 28.2849C218.045 26.4898 214.263 25.7949 210.553 25.6038H209.163C199.638 25.8908 193.776 31.8049 189.681 37.2538C189.643 37.3041 189.606 37.3544 189.568 37.4046C188.64 38.6472 187.804 39.8625 187.036 40.9781C186.738 41.4106 186.451 41.8282 186.172 42.2265V37.4046C186.129 37.0347 186.074 36.6648 186.008 36.2962C185.688 34.5151 185.093 32.7639 184.151 31.187C182.13 28.2685 179.603 26.6189 176.193 25.7306C175.814 25.7306 175.435 25.7306 175.056 25.6038H173.919C169.686 26.0981 165.76 28.5956 163.516 32.1958C162.88 33.2159 162.379 34.3246 162.044 35.5012C162.044 35.687 162.112 35.8728 162.198 36.1084ZM188.725 32.7884C193.084 27.6261 199.47 22.3695 209.058 22.0806L209.111 22.079H210.643L210.733 22.0836C215.963 22.3531 222.024 23.5789 226.587 27.8459L229.544 30.6115L212.489 44.4802L210.488 40.7129C209.048 37.9999 206.67 36.6151 203.984 36.6151C198.768 36.6151 189.681 42.7784 189.681 63.5441V80.244C189.794 84.0166 191.724 87.7381 193.959 89.9829L199.949 96H156.731L162.721 89.9829C165.108 87.5851 166.999 83.8726 166.999 80.1668V46.6676C166.999 42.4401 166.932 40.6129 166.832 39.7185C166.806 39.4892 166.783 39.3754 166.773 39.3333C166.769 39.3229 166.761 39.3059 166.749 39.2801C166.735 39.2488 166.662 39.0969 166.592 38.9449C166.591 38.942 166.589 38.9393 166.588 38.9367C166.584 38.9358 166.58 38.9348 166.576 38.9337C166.52 38.9198 166.405 38.8991 166.213 38.8991C165.756 38.8991 164.903 39.0213 163.866 39.5421L160.248 41.3596L158.968 37.5041C158.954 37.4617 158.938 37.4163 158.909 37.3368L158.902 37.3173C158.877 37.2497 158.834 37.1311 158.794 37.0124C158.711 36.7599 158.535 36.2021 158.535 35.5012V35.0076L158.67 34.5329C160.602 27.7402 166.773 22.8899 173.514 22.1026L173.715 22.079H175.625L176.001 22.2049L176.069 22.2057L176.193 22.2059H176.64L177.073 22.3187C181.223 23.3993 184.49 25.5046 187.032 29.1741L187.099 29.2716L187.16 29.3735C187.816 30.4722 188.331 31.6216 188.725 32.7884Z" fill="url(#paint1_linear_267_2859)"/>
<path fill-rule="evenodd" clip-rule="evenodd" d="M124.472 41.4865L123.193 37.631C123.179 37.5886 123.162 37.5432 123.133 37.4637L123.126 37.4437C123.101 37.376 123.058 37.2577 123.019 37.1393C122.935 36.8868 122.76 36.329 122.76 35.6281V35.1942L122.865 34.7733C123.638 31.668 125.674 28.5918 128.318 26.2983C130.282 24.5954 132.747 23.1831 135.532 22.5556C133.338 21.2148 132.045 18.986 131.509 16.7303C130.914 14.2258 131.162 11.4181 132.271 8.84849L132.285 8.81477L132.301 8.78136C134.133 4.76589 138.002 1.77646 142.186 1.77646C143.213 1.77646 144.419 1.97093 145.51 2.40925L145.59 2.44149L145.669 2.47766C151.142 4.99721 151.891 11.7301 149.679 16.6494L149.671 16.6673C148.369 19.5198 146.04 21.8545 143.3 22.9676C149.392 25.0457 153.393 31.0719 153.894 37.2447L153.906 37.3879V80.1668C153.906 83.8233 155.881 87.5629 158.238 90.0389L163.915 96H120.956L126.946 89.9829C129.333 87.5851 131.224 83.8726 131.224 80.1668V44.2951C131.159 41.3417 131.097 40.1409 131.018 39.5561C131.011 39.4989 131.004 39.4576 130.999 39.4295L130.943 39.3182L130.94 39.3135C130.913 39.2593 130.876 39.1871 130.836 39.1078C130.827 39.0895 130.819 39.0749 130.812 39.0636C130.809 39.0626 130.805 39.0616 130.801 39.0606C130.745 39.0467 130.63 39.026 130.438 39.026C129.981 39.026 129.128 39.1482 128.091 39.669L124.472 41.4865ZM134.733 44.2567V80.1668C134.733 83.3366 133.696 86.3966 132.159 88.9505C131.359 90.2816 130.423 91.4753 129.427 92.4753H155.702C154.75 91.4753 153.828 90.2816 153.026 88.9505C151.489 86.3966 150.397 83.3366 150.397 80.1668V37.5315C149.892 31.3138 145.091 25.7306 138.649 25.7306C134.025 25.7306 129.915 28.8302 127.72 32.3279C127.037 33.4166 126.539 34.5438 126.269 35.6281C126.269 35.8139 126.337 35.9997 126.423 36.2352C126.454 36.3215 126.488 36.4144 126.522 36.5164C126.939 36.3067 127.347 36.1355 127.74 35.9975C128.226 35.8271 128.688 35.7073 129.119 35.6281C129.158 35.6209 129.198 35.6139 129.237 35.6073C129.423 35.5757 129.604 35.5519 129.776 35.5348C129.853 35.5273 129.927 35.5212 130.001 35.5162C130.153 35.506 130.299 35.5012 130.438 35.5012C132.206 35.5012 133.343 36.2626 133.975 37.5315C134.006 37.5952 134.037 37.6544 134.066 37.7109C134.496 38.5542 134.614 38.7862 134.733 44.2567ZM135.491 10.25C133.848 14.0567 134.859 18.371 137.764 19.7668C138.396 20.0205 139.154 20.1474 139.786 20.1474C142.312 20.1474 145.091 18.2441 146.481 15.1987C148.249 11.2651 147.239 7.07768 144.207 5.68189C143.575 5.4281 142.817 5.30121 142.186 5.30121C139.659 5.30121 136.88 7.20457 135.491 10.25Z" fill="url(#paint2_linear_267_2859)"/>
<path fill-rule="evenodd" clip-rule="evenodd" d="M85.4888 96L91.1653 90.0389C93.523 87.5629 95.4977 83.8233 95.4977 80.1668V12.4275L98.1786 11.7735C105.397 10.0127 108.022 4.70127 108.83 2.36679L109.65 0H118.18V80.1668C118.18 83.8726 120.071 87.5852 122.458 89.9829L128.448 96H85.4888ZM93.7011 92.4753H119.976C118.981 91.4753 118.045 90.2817 117.244 88.9505C115.708 86.3966 114.671 83.3366 114.671 80.1668V3.52475H112.144C111.93 4.14434 111.613 4.92979 111.162 5.80338C109.489 9.04471 105.972 13.4995 99.0067 15.1987V80.1668C99.0067 83.3366 97.9149 86.3966 96.3773 88.9505C95.5759 90.2817 94.6533 91.4753 93.7011 92.4753Z" fill="url(#paint3_linear_267_2859)"/>
<path fill-rule="evenodd" clip-rule="evenodd" d="M0 96L2.00718 91.1276C2.7581 89.3047 11.1117 68.7641 19.2403 48.777C25.9873 32.1869 32.5792 15.9781 34.5395 11.1714C33.9029 9.68249 33.5342 8.79815 33.3199 8.25986C33.3075 8.22879 33.2944 8.19611 33.2806 8.16189C33.2351 8.04921 33.183 7.91985 33.1305 7.77617C32.9985 7.53407 32.9083 7.32017 32.8722 7.23463C32.8687 7.22616 32.8656 7.21896 32.8631 7.2131C32.8069 7.08139 32.7171 6.8628 32.5973 6.57132C32.4349 6.17629 32.2176 5.64739 31.9543 5.01944L29.9035 0.126888H53.3546L54.2369 2.34257C54.9861 4.22391 89.7123 88.9557 90.6049 91.1332L92.5999 96H59.2434L60.3334 91.6204C61.522 86.8444 62.0251 84.2754 61.5253 80.6686C61.0356 77.1344 59.5612 72.4992 56.3105 64.2773H24.0522C20.8068 72.5516 19.4773 76.9429 19.2169 80.2687C18.9542 83.6233 19.7548 86.0356 21.6778 91.2511L23.4288 96H0ZM58.7753 60.9781C65.3781 77.4203 66.0587 81.8087 64.5634 88.9505C64.3346 90.0433 64.0549 91.2005 63.7376 92.4753H87.3602C87.2624 92.2366 86.7502 90.987 85.9156 88.9505C79.2057 72.5781 51.653 5.34443 50.9789 3.65163H35.1884C35.4833 4.35526 35.6922 4.86434 35.8432 5.23251C36.2097 6.12582 36.2358 6.18946 36.3253 6.18946C36.3253 6.25974 36.3253 6.33001 36.6687 7.17638C36.9453 7.85816 37.4447 9.04355 38.3465 11.1382C38.2777 11.2993 37.1945 13.9579 35.4581 18.2244C32.5134 25.4598 27.6903 37.3196 22.7508 49.4655C21.8335 51.7211 20.9121 53.9865 19.9981 56.234C19.8632 56.5657 19.7285 56.897 19.5939 57.2278C19.2798 58.0003 18.9666 58.7703 18.655 59.5365C18.4589 60.0186 18.2635 60.4992 18.0687 60.9781C16.9349 63.7659 15.8255 66.4937 14.7631 69.1057C11.3189 77.5734 8.3693 84.8233 6.68802 88.9505C5.9166 90.8442 5.4122 92.0804 5.24955 92.4753H18.3873C17.9133 91.1898 17.4887 90.0313 17.1237 88.9505C15.1437 83.0882 14.9151 79.5097 18.0547 70.3323C18.9464 67.726 20.1097 64.6681 21.5816 60.9781C21.6115 60.9032 21.6415 60.828 21.6717 60.7525H58.6846C58.715 60.828 58.7452 60.9032 58.7753 60.9781ZM57.4214 57.4534C57.3909 57.3784 57.3604 57.3032 57.3297 57.2278C56.8998 56.1701 56.4503 55.0714 55.9806 53.9286C54.6027 50.5766 53.0507 46.8451 51.308 42.6551C48.6963 36.3755 45.6562 29.0661 42.1321 20.4611C41.5167 18.9585 40.8865 17.4163 40.2413 15.8332C39.7185 17.1037 39.2058 18.3477 38.7031 19.5659C38.58 19.8639 38.4576 20.1604 38.3358 20.4554C34.5863 29.5338 31.3983 37.1557 28.6913 43.6274C27.0968 47.4393 25.6693 50.8522 24.3923 53.9286C23.9169 55.0739 23.4623 56.1725 23.0278 57.2278C22.9967 57.3032 22.9658 57.3784 22.9349 57.4534H57.4214ZM28.1947 53.9286H52.1836C50.9376 50.9064 49.5687 47.6156 48.0551 43.9771C45.7931 38.5393 43.208 32.3248 40.2273 25.0698C37.6694 31.2476 35.3879 36.7141 33.3549 41.5768C32.8638 42.7516 32.3873 43.8907 31.9251 44.9957C30.5616 48.2555 29.322 51.2191 28.1947 53.9286Z" fill="url(#paint4_linear_267_2859)"/>
<defs>
<linearGradient id="paint0_linear_267_2859" x1="43.9024" y1="-27.7799" x2="188.479" y2="124.914" gradientUnits="userSpaceOnUse">
<stop offset="0.15" stop-color="#D4F7F4"/>
<stop offset="0.3" stop-color="#93ECE2"/>
<stop offset="0.4" stop-color="#26D9C7"/>
<stop offset="0.5" stop-color="#0F564F"/>
<stop offset="0.6" stop-color="#26D9C7"/>
<stop offset="0.7" stop-color="#93ECE2"/>
<stop offset="0.85" stop-color="#D4F7F4"/>
</linearGradient>
<linearGradient id="paint1_linear_267_2859" x1="43.9024" y1="-27.7799" x2="188.479" y2="124.914" gradientUnits="userSpaceOnUse">
<stop offset="0.15" stop-color="#D4F7F4"/>
<stop offset="0.3" stop-color="#93ECE2"/>
<stop offset="0.4" stop-color="#26D9C7"/>
<stop offset="0.5" stop-color="#0F564F"/>
<stop offset="0.6" stop-color="#26D9C7"/>
<stop offset="0.7" stop-color="#93ECE2"/>
<stop offset="0.85" stop-color="#D4F7F4"/>
</linearGradient>
<linearGradient id="paint2_linear_267_2859" x1="43.9024" y1="-27.7799" x2="188.479" y2="124.914" gradientUnits="userSpaceOnUse">
<stop offset="0.15" stop-color="#D4F7F4"/>
<stop offset="0.3" stop-color="#93ECE2"/>
<stop offset="0.4" stop-color="#26D9C7"/>
<stop offset="0.5" stop-color="#0F564F"/>
<stop offset="0.6" stop-color="#26D9C7"/>
<stop offset="0.7" stop-color="#93ECE2"/>
<stop offset="0.85" stop-color="#D4F7F4"/>
</linearGradient>
<linearGradient id="paint3_linear_267_2859" x1="43.9024" y1="-27.7799" x2="188.479" y2="124.914" gradientUnits="userSpaceOnUse">
<stop offset="0.15" stop-color="#D4F7F4"/>
<stop offset="0.3" stop-color="#93ECE2"/>
<stop offset="0.4" stop-color="#26D9C7"/>
<stop offset="0.5" stop-color="#0F564F"/>
<stop offset="0.6" stop-color="#26D9C7"/>
<stop offset="0.7" stop-color="#93ECE2"/>
<stop offset="0.85" stop-color="#D4F7F4"/>
</linearGradient>
<linearGradient id="paint4_linear_267_2859" x1="43.9024" y1="-27.7799" x2="188.479" y2="124.914" gradientUnits="userSpaceOnUse">
<stop offset="0.15" stop-color="#D4F7F4"/>
<stop offset="0.3" stop-color="#93ECE2"/>
<stop offset="0.4" stop-color="#26D9C7"/>
<stop offset="0.5" stop-color="#0F564F"/>
<stop offset="0.6" stop-color="#26D9C7"/>
<stop offset="0.7" stop-color="#93ECE2"/>
<stop offset="0.85" stop-color="#D4F7F4"/>
</linearGradient>
</defs>
</svg>
