<svg width="308" height="102" viewBox="0 0 308 102" fill="none" xmlns="http://www.w3.org/2000/svg">
<path d="M3.61216 98.4309L2.76368 100.5H5H19.1143H21.2627L20.5225 98.4832C18.475 92.9049 17.4155 89.8436 17.7428 85.6444C18.0683 81.4692 19.7744 76.1007 23.6618 66.2632H61.391C65.2783 76.0321 67.1101 81.6098 67.7072 85.9382C68.3097 90.3064 67.6644 93.4548 66.38 98.6393L65.919 100.5H67.8359H93.2146H95.4468L94.6034 98.4333C93.6499 96.0966 56.3338 4.62907 55.5232 2.58419L55.1477 1.63695H54.1288H37.1644H34.9132L35.7801 3.71457C36.0835 4.44175 36.3117 5.00004 36.4788 5.40891C36.5995 5.70437 36.6884 5.9218 36.7507 6.06854L36.7536 6.07538C36.8131 6.21544 36.9056 6.43331 37.0248 6.61912C37.0861 6.80297 37.1663 7.00677 37.2628 7.25033C37.5208 7.90104 38.0082 9.07124 38.9314 11.2304C37.4903 14.7727 30.0145 33.2391 22.3038 52.2857C13.5214 73.9795 4.43432 96.4259 3.61216 98.4309ZM98.9382 97.9681L96.5382 100.5H100.027H128.256H131.854L129.321 97.9441C126.42 95.0173 124.056 90.4499 124.056 85.7161V3V1.5H122.556H119.841H118.772L118.423 2.51118C117.421 5.41708 114.172 11.9853 105.37 14.1423L104.227 14.4224V15.5991V15.6007V15.6023V15.6039V15.6055V15.6071V15.6087V15.6103V15.6119V15.6135V15.615V15.6166V15.6182V15.6197V15.6213V15.6229V15.6244V15.626V15.6275V15.6291V15.6306V15.6322V15.6337V15.6353V15.6368V15.6383V15.6398V15.6414V15.6429V15.6444V15.6459V15.6474V15.649V15.6505V15.652V15.6535V15.655V15.6565V15.658V15.6595V15.661V15.6624V15.6639V15.6654V15.6669V15.6684V15.6698V15.6713V15.6728V15.6743V15.6757V15.6772V15.6786V15.6801V15.6816V15.683V15.6845V15.6859V15.6874V15.6888V15.6902V15.6917V15.6931V15.6945V15.696V15.6974V15.6988V15.7002V15.7017V15.7031V15.7045V15.7059V15.7073V15.7087V15.7101V15.7116V15.713V15.7144V15.7158V15.7172V15.7185V15.7199V15.7213V15.7227V15.7241V15.7255V15.7269V15.7282V15.7296V15.731V15.7324V15.7337V15.7351V15.7365V15.7378V15.7392V15.7406V15.7419V15.7433V15.7446V15.746V15.7473V15.7487V15.75V15.7514V15.7527V15.7541V15.7554V15.7568V15.7581V15.7594V15.7608V15.7621V15.7634V15.7648V15.7661V15.7674V15.7687V15.77V15.7714V15.7727V15.774V15.7753V15.7766V15.7779V15.7792V15.7806V15.7819V15.7832V15.7845V15.7858V15.7871V15.7884V15.7897V15.791V15.7923V15.7935V15.7948V15.7961V15.7974V15.7987V15.8V15.8013V15.8026V15.8038V15.8051V15.8064V15.8077V15.8089V15.8102V15.8115V15.8128V15.814V15.8153V15.8166V15.8178V15.8191V15.8204V15.8216V15.8229V15.8242V15.8254V15.8267V15.8279V15.8292V15.8304V15.8317V15.8329V15.8342V15.8355V15.8367V15.8379V15.8392V15.8404V15.8417V15.8429V15.8442V15.8454V15.8467V15.8479V15.8491V15.8504V15.8516V15.8529V15.8541V15.8553V15.8566V15.8578V15.859V15.8603V15.8615V15.8627V15.8639V15.8652V15.8664V15.8676V15.8689V15.8701V15.8713V15.8725V15.8737V15.875V15.8762V15.8774V15.8786V15.8799V15.8811V15.8823V15.8835V15.8847V15.8859V15.8872V15.8884V15.8896V15.8908V15.892V15.8932V15.8944V15.8957V15.8969V15.8981V15.8993V15.9005V15.9017V15.9029V15.9041V15.9053V15.9066V15.9078V15.909V15.9102V15.9114V15.9126V15.9138V15.915V15.9162V15.9174V15.9186V15.9198V15.921V15.9222V15.9235V15.9247V15.9259V15.9271V15.9283V15.9295V15.9307V15.9319V15.9331V15.9343V15.9355V15.9367V15.9379V15.9391V15.9403V15.9415V15.9427V15.9439V15.9451V15.9463V15.9475V15.9487V15.9499V15.9511V15.9523V15.9536V15.9548V15.956V15.9572V15.9584V15.9596V15.9608V15.962V15.9632V15.9644V15.9656V15.9668V15.968V15.9692V15.9704V15.9716V15.9728V15.9741V15.9753V15.9765V15.9777V15.9789V15.9801V15.9813V15.9825V15.9837V15.9849V15.9861V15.9874V15.9886V15.9898V15.991V15.9922V15.9934V15.9946V15.9959V15.9971V15.9983V15.9995V16.0007V16.0019V16.0032V16.0044V16.0056V16.0068V16.0081V16.0093V16.0105V16.0117V16.0129V16.0142V16.0154V16.0166V16.0179V16.0191V16.0203V16.0215V16.0228V16.024V16.0252V16.0265V16.0277V16.0289V16.0302V16.0314V16.0326V16.0339V16.0351V16.0364V16.0376V16.0388V16.0401V16.0413V16.0426V16.0438V16.0451V16.0463V16.0476V16.0488V16.0501V16.0513V16.0526V16.0538V16.0551V16.0563V16.0576V16.0589V16.0601V16.0614V16.0627V16.0639V16.0652V16.0664V16.0677V16.069V16.0703V16.0715V16.0728V16.0741V16.0754V16.0766V16.0779V16.0792V16.0805V16.0818V16.083V16.0843V16.0856V16.0869V16.0882V16.0895V16.0908V16.0921V16.0934V16.0947V16.096V16.0973V16.0986V16.0999V16.1012V16.1025V16.1038V16.1051V16.1064V16.1077V16.109V16.1103V16.1117V16.113V16.1143V16.1156V16.1169V16.1183V16.1196V16.1209V16.1223V16.1236V16.1249V16.1263V16.1276V16.1289V16.1303V16.1316V16.133V16.1343V16.1357V16.137V16.1384V16.1397V16.1411V16.1425V16.1438V16.1452V16.1465V16.1479V16.1493V16.1507V16.152V16.1534V16.1548V16.1562V16.1575V16.1589V16.1603V16.1617V16.1631V16.1645V16.1659V16.1673V16.1687V16.1701V16.1715V16.1729V16.1743V16.1757V16.1771V16.1785V16.1799V16.1814V16.1828V16.1842V16.1856V16.1871V16.1885V16.1899V16.1914V16.1928V16.1942V16.1957V16.1971V16.1986V16.2V16.2015V16.2029V16.2044V16.2058V16.2073V16.2088V16.2102V16.2117V16.2132V16.2146V16.2161V16.2176V16.2191V16.2206V16.2221V16.2236V16.225V16.2265V16.228V16.2295V16.231V16.2326V16.2341V16.2356V16.2371V16.2386V16.2401V16.2417V16.2432V16.2447V16.2462V16.2478V16.2493V16.2508V16.2524V16.2539V16.2555V16.257V16.2586V16.2602V16.2617V16.2633V16.2648V16.2664V16.268V16.2696V16.2711V16.2727V16.2743V16.2759V16.2775V16.2791V16.2807V16.2823V16.2839V85.7161C104.227 90.4289 101.744 95.0079 98.9382 97.9681ZM133.863 39.0768L134.409 40.7296L135.963 39.9455C137.386 39.2275 138.648 39.0107 139.494 39.0107C140.225 39.0107 140.728 39.1671 141.081 39.379C141.43 39.5885 141.721 39.9044 141.95 40.3678C142.007 40.4829 142.051 40.5684 142.085 40.6366C142.157 40.778 142.191 40.8448 142.23 40.9457C142.269 41.0485 142.319 41.2122 142.367 41.5778C142.473 42.3664 142.54 43.8111 142.609 46.9761V85.7161C142.609 90.4499 140.244 95.0173 137.343 97.9441L134.81 100.5H138.409H166.637H170.126L167.726 97.9681C164.92 95.0079 162.437 90.4289 162.437 85.7161V65.8588V65.8154V65.7721V65.7287V65.6853V65.6419V65.5984V65.555V65.5115V65.468V65.4245V65.381V65.3374V65.2939V65.2503V65.2067V65.1631V65.1194V65.0758V65.0321V64.9884V64.9447V64.901V64.8572V64.8134V64.7696V64.7258V64.682V64.6382V64.5943V64.5504V64.5065V64.4626V64.4187V64.3747V64.3308V64.2868V64.2428V64.1987V64.1547V64.1106V64.0665V64.0224V63.9783V63.9342V63.89V63.8458V63.8017V63.7574V63.7132V63.669V63.6247V63.5804V63.5361V63.4918V63.4475V63.4031V63.3587V63.3143V63.2699V63.2255V63.1811V63.1366V63.0921V63.0476V63.0031V62.9585V62.914V62.8694V62.8248V62.7802V62.7356V62.691V62.6463V62.6016V62.5569V62.5122V62.4675V62.4227V62.3779V62.3332V62.2883V62.2435V62.1987V62.1538V62.109V62.0641V62.0191V61.9742V61.9293V61.8843V61.8393V61.7943V61.7493V61.7043V61.6592V61.6141V61.5691V61.5239V61.4788V61.4337V61.3885V61.3433V61.2981V61.2529V61.2077V61.1625V61.1172V61.0719V61.0266V60.9813V60.936V60.8906V60.8452V60.7999V60.7545V60.709V60.6636V60.6181V60.5727V60.5272V60.4817V60.4361V60.3906V60.345V60.2995V60.2539V60.2083V60.1626V60.117V60.0713V60.0256V59.9799V59.9342V59.8885V59.8427V59.797V59.7512V59.7054V59.6596V59.6137V59.5679V59.522V59.4761V59.4302V59.3843V59.3384V59.2924V59.2464V59.2004V59.1544V59.1084V59.0624V59.0163V58.9702V58.9242V58.878V58.8319V58.7858V58.7396V58.6934V58.6473V58.601V58.5548V58.5086V58.4623V58.416V58.3698V58.3234V58.2771V58.2308V58.1844V58.138V58.0916V58.0452V57.9988V57.9524V57.9059V57.8594V57.8129V57.7664V57.7199V57.6734V57.6268V57.5802V57.5336V57.487V57.4404V57.3938V57.3471V57.3004V57.2537V57.207V57.1603V57.1136V57.0668V57.02V56.9732V56.9264V56.8796V56.8328V56.7859V56.739V56.6922V56.6452V56.5983V56.5514V56.5044V56.4575V56.4105V56.3635V56.3165V56.2694V56.2224V56.1753V56.1282V56.0811V56.034V55.9869V55.9397V55.8926V55.8454V55.7982V55.751V55.7037V55.6565V55.6092V55.562V55.5147V55.4674V55.42V55.3727V55.3253V55.278V55.2306V55.1832V55.1358V55.0883V55.0409V54.9934V54.9459V54.8984V54.8509V54.8034V54.7558V54.7083V54.6607V54.6131V54.5655V54.5178V54.4702V54.4225V54.3749V54.3272V54.2795V54.2318V54.184V54.1363V54.0885V54.0407V53.9929V53.9451V53.8973V53.8494V53.8016V53.7537V53.7058V53.6579V53.61V53.562V53.5141V53.4661V53.4181V53.3701V53.3221V53.2741V53.226V53.178V53.1299V53.0818V53.0337V52.9855V52.9374V52.8893V52.8411V52.7929V52.7447V52.6965V52.6482V52.6V52.5517V52.5035V52.4552V52.4069V52.3585V52.3102V52.2618V52.2135V52.1651V52.1167V52.0683V52.0198V51.9714V51.9229V51.8745V51.826V51.7775V51.729V51.6804V51.6319V51.5833V51.5347V51.4861V51.4375V51.3889V51.3403V51.2916V51.2429V51.1942V51.1455V51.0968V51.0481V50.9994V50.9506V50.9018V50.853V50.8042V50.7554V50.7066V50.6577V50.6089V50.56V50.5111V50.4622V50.4133V50.3643V50.3154V50.2664V50.2174V50.1684V50.1194V50.0704V50.0214V49.9723V49.9232V49.8741V49.8251V49.7759V49.7268V49.6777V49.6285V49.5793V49.5302V49.481V49.4317V49.3825V49.3333V49.284V49.2347V49.1855V49.1362V49.0868V49.0375V48.9882V48.9388V48.8894V48.84V48.7906V48.7412V48.6918V48.6424V48.5929V48.5434V48.4939V48.4444V48.3949V48.3454V48.2958V48.2463V48.1967V48.1471V48.0975V48.0479V47.9983V47.9486V47.899V47.8493V47.7996V47.7499V47.7002V47.6505V47.6007V47.551V47.5012V47.4514V47.4016V47.3518V47.302V47.2522V47.2023V47.1524V47.1026V47.0527V47.0028V46.9528V46.9029V46.853V46.803V46.753V46.703V46.653V46.603V46.553V46.5029V46.4529V46.4028V46.3527V46.3026V46.2525V46.2023V46.1522V46.102V46.0519V46.0017V45.9515V45.9013V45.8511V45.8008V45.7506V45.7003V45.65V45.5997V45.5494V45.4991V45.4488V45.3984V45.3481V45.2977V45.2473V45.1969V45.1465V45.0961V45.0456V44.9952V44.9447V44.8942V44.8437V44.7932V44.7427V44.6922V44.6416V44.591V44.5405V44.4899V44.4393V44.3887V44.338V44.2874V44.2367V44.1861V44.1354V44.0847V44.034V43.9833V43.9326V43.8818V43.831V43.7803V43.7295V43.6787V43.6279V43.5771V43.5262V43.4754V43.4245V43.3736V43.3227V43.2718V43.2209V43.17V43.119V43.0681V43.0171V42.9661V42.9152V42.8642V42.8131V42.7621V42.7111V42.66V42.6089V42.5578V42.5068V42.4556V42.4045V42.3534V42.3022V42.2511V42.1999V42.1487V42.0975V42.0463V41.9951V41.9439V41.8926V41.8414V41.7901V41.7388V41.6875V41.6362V41.5849V41.5335V41.4822V39.7019V39.6413L162.432 39.5809C161.842 32.2804 156.195 25.4658 148.316 25.4658C144.612 25.4658 141.256 27.0968 138.696 29.3269C136.146 31.5484 134.257 34.475 133.56 37.2869L133.516 37.4646V37.6476C133.516 38.0267 133.61 38.3455 133.676 38.5461C133.707 38.6393 133.742 38.7347 133.77 38.8112L133.777 38.8329C133.809 38.9199 133.836 38.9964 133.863 39.0768ZM146.714 21.8802L146.759 21.9017L146.804 21.9202C147.68 22.2738 148.688 22.4401 149.537 22.4401C152.968 22.4401 156.417 19.9152 158.096 16.2195L158.099 16.2119C160.184 11.5548 159.216 5.95476 154.917 3.96666L154.883 3.95106L154.849 3.93714C153.973 3.58353 152.965 3.41726 152.116 3.41726C148.686 3.41726 145.236 5.94217 143.557 9.63788L143.551 9.65204L143.545 9.66633C142.542 12.0024 142.334 14.5215 142.853 16.7145C143.369 18.901 144.647 20.8828 146.714 21.8802ZM172.298 38.9398L172.844 40.5926L174.398 39.8085C175.821 39.0906 177.083 38.8737 177.929 38.8737C178.66 38.8737 179.162 39.0302 179.516 39.242C179.858 39.4475 180.144 39.7554 180.372 40.2043C180.452 40.3848 180.504 40.4932 180.543 40.5752C180.596 40.6854 180.626 40.7482 180.671 40.8744C180.723 41.0227 180.789 41.2669 180.849 41.8027C180.974 42.9204 181.044 45.0259 181.044 49.562V50.1098V50.1668V50.2239V50.281V50.3381V50.3953V50.4525V50.5097V50.567V50.6244V50.6818V50.7392V50.7967V50.8542V50.9118V50.9694V51.027V51.0847V51.1425V51.2003V51.2581V51.316V51.3739V51.4319V51.4899V51.5479V51.606V51.6642V51.7224V51.7806V51.8389V51.8972V51.9556V52.014V52.0725V52.131V52.1895V52.2481V52.3067V52.3654V52.4242V52.4829V52.5418V52.6006V52.6595V52.7185V52.7775V52.8365V52.8956V52.9548V53.0139V53.0732V53.1324V53.1918V53.2511V53.3105V53.37V53.4295V53.489V53.5486V53.6083V53.6679V53.7277V53.7874V53.8473V53.9071V53.967V54.027V54.087V54.1471V54.2072V54.2673V54.3275V54.3877V54.448V54.5083V54.5687V54.6291V54.6896V54.7501V54.8107V54.8713V54.9319V54.9926V55.0533V55.1141V55.175V55.2359V55.2968V55.3578V55.4188V55.4799V55.541V55.6021V55.6633V55.7246V55.7859V55.8472V55.9086V55.9701V56.0316V56.0931V56.1547V56.2163V56.278V56.3397V56.4015V56.4633V56.5252V56.5871V56.6491V56.7111V56.7731V56.8352V56.8974V56.9596V57.0218V57.0841V57.1465V57.2088V57.2713V57.3338V57.3963V57.4589V57.5215V57.5842V57.6469V57.7097V57.7725V57.8353V57.8982V57.9612V58.0242V58.0873V58.1504V58.2135V58.2767V58.34V58.4033V58.4666V58.53V58.5934V58.6569V58.7205V58.784V58.8477V58.9114V58.9751V59.0389V59.1027V59.1666V59.2305V59.2945V59.3585V59.4226V59.4867V59.5508V59.615V59.6793V59.7436V59.808V59.8724V59.9369V60.0014V60.0659V60.1305V60.1952V60.2599V60.3246V60.3894V60.4543V60.5192V60.5841V60.6491V60.7142V60.7793V60.8444V60.9096V60.9749V61.0401V61.1055V61.1709V61.2363V61.3018V61.3674V61.4329V61.4986V61.5643V61.63V61.6958V61.7616V61.8275V61.8935V61.9594V62.0255V62.0916V62.1577V62.2239V62.2901V62.3564V62.4227V62.4891V62.5556V62.6221V62.6886V62.7552V62.8218V62.8885V62.9552V63.022V63.0889V63.1557V63.2227V63.2897V63.3567V63.4238V63.4909V63.5581V63.6254V63.6927V63.76V63.8274V63.8948V63.9623V64.0299V64.0975V64.1651V64.2328V64.3006V64.3684V64.4362V64.5041V64.5721V64.6401V64.7081V64.7762V64.8444V64.9126V64.9808V65.0492V65.1175V65.1859V65.2544V65.3229V65.3915V65.4601V65.5287V65.5975V65.6662V65.7351V65.8039V65.8729V65.9418V66.0109V66.0799V66.1491V66.2183V66.2875V66.3568V66.4261V66.4955V66.565V66.6344V66.704V66.7736V66.8432V66.9129V66.9827V67.0525V67.1224V67.1923V67.2622V67.3322V67.4023V67.4724V67.5426V67.6128V67.6831V67.7534V67.8238V67.8942V67.9647V68.0353V68.1059V68.1765V68.2472V68.3179V68.3887V68.4596V68.5305V68.6015V68.6725V68.7435V68.8147V68.8858V68.9571V69.0283V69.0997V69.171V69.2425V69.314V69.3855V69.4571V69.5287V69.6004V69.6722V69.744V69.8159V69.8878V69.9597V70.0318V70.1038V70.176V70.2481V70.3204V70.3927V70.465V70.5374V70.6098V70.6824V70.7549V70.8275V70.9002V70.9729V71.0457V71.1185V71.1914V71.2643V71.3373V71.4103V71.4834V71.5566V71.6298V71.703V71.7763V71.8497V71.9231V71.9966V72.0701V72.1437V72.2173V72.291V72.3647V72.4385V72.5124V72.5863V72.6603V72.7343V72.8083V72.8825V72.9566V73.0309V73.1052V73.1795V73.2539V73.3284V73.4029V73.4774V73.552V73.6267V73.7014V73.7762V73.8511V73.926V74.0009V74.0759V74.151V74.2261V74.3012V74.3765V74.4517V74.5271V74.6024V74.6779V74.7534V74.8289V74.9045V74.9802V75.0559V75.1317V75.2075V75.2834V75.3594V75.4354V75.5114V75.5875V75.6637V75.7399V75.8162V75.8925V75.9689V76.0453V76.1218V76.1984V76.275V76.3517V76.4284V76.5052V76.582V76.6589V76.7358V76.8128V76.8899V76.967V77.0442V77.1214V77.1987V77.276V77.3534V77.4309V77.5084V77.586V77.6636V77.7412V77.819V77.8968V77.9746V78.0525V78.1305V78.2085V78.2866V78.3647V78.4429V78.5211V78.5994V78.6778V78.7562V78.8347V78.9132V78.9918V79.0704V79.1491V79.2279V79.3067V79.3856V79.4645V79.5435V79.6226V79.7017V79.7808V79.86V79.9393V80.0186V80.098V80.1775V80.257V80.3365V80.4161V80.4958V80.5755V80.6553V80.7352V80.8151V80.895V80.9751V81.0551V81.1353V81.2155V81.2957V81.376V81.4564V81.5368V81.6173V81.6979V81.7785V81.8591V81.9398V82.0206V82.1014V82.1823V82.2633V82.3443V82.4253V82.5065V82.5877V82.6689V82.7502V82.8316V82.913V82.9944V83.076V83.1576V83.2392V83.3209V83.4027V83.4845V83.5664V83.6483V83.7303V83.8124V83.8945V83.9767V84.0589V84.1412V84.2236V84.306V84.3885V84.471V84.5536V84.6363V84.719V84.8017V84.8846V84.9675V85.0504V85.1334V85.2165V85.2996V85.3828V85.466V85.5493V85.6327V85.7161C181.044 90.4499 178.679 95.0173 175.778 97.9441L173.245 100.5H176.844H205.072H208.671L206.138 97.9441C203.384 95.1653 201.002 90.5942 200.872 85.8328V67.776C200.872 44.9069 210.977 36.4087 218.508 36.4087C222.264 36.4087 225.57 38.4013 227.496 42.0461L228.352 43.666L229.771 42.5069L241.171 33.1945L242.497 32.1116L241.249 30.9396C236.929 26.8809 231.068 25.6116 225.643 25.3308L225.604 25.3288H225.565H224.072H224.05L224.027 25.3295C212.246 25.6861 205.37 33.641 200.872 39.9605V39.5649V39.4778L200.862 39.3912C200.571 36.8979 199.84 34.3582 198.49 32.0879L198.464 32.0446L198.436 32.0031C196.044 28.5336 193.013 26.5566 189.03 25.5146L188.844 25.4658H188.651C188.21 25.4658 188.046 25.4537 187.907 25.4071L187.675 25.3288H187.429H186.208H186.12L186.033 25.339C179.631 26.0903 173.811 30.7325 172.007 37.102L171.951 37.3024V37.5107C171.951 37.8897 172.045 38.2085 172.111 38.4091C172.145 38.5114 172.183 38.6163 172.212 38.696C172.244 38.783 172.271 38.8594 172.298 38.9398ZM238.886 67.32L238.886 67.3227C239.586 78.4086 243.696 86.7286 249.678 92.2767C255.647 97.8134 263.385 100.5 271.191 100.5C287.1 100.5 303.238 89.442 306.198 68.3957L303.364 67.5296C295.27 84.1332 284.728 89.1462 276.619 89.1462C272.956 89.1462 269.738 88.1253 267.369 86.651C264.963 85.153 263.602 83.3043 263.301 81.7407C262.861 79.3815 263.205 77.7542 263.951 76.5583C264.717 75.3313 266.034 74.3498 267.927 73.554C271.372 72.1062 276.14 71.4895 281.347 70.8159C281.985 70.7334 282.63 70.65 283.279 70.5641C289.055 69.8006 295.207 68.8377 299.695 66.256C301.98 64.9408 303.899 63.1728 305.114 60.7511C306.328 58.3302 306.772 55.3899 306.337 51.8446C304.191 34.1007 290.247 25.4658 275.805 25.4658C266.481 25.4658 256.831 29.0262 249.711 36.0676C242.564 43.1357 238.047 53.6325 238.886 67.32ZM258.515 75.134C257.84 73.3774 257.335 71.0826 257.083 68.3815C256.689 64.1449 256.937 59.1405 257.952 54.1764C260.005 44.1405 265.053 34.8222 273.591 31.8037L273.599 31.8007L273.607 31.7976C274.954 31.3036 276.272 31.0678 277.434 31.0678C284.153 31.0678 290.389 37.1238 291.472 44.4407C292.003 48.0283 291.274 51.873 288.722 55.3763C286.16 58.8925 281.681 62.1699 274.539 64.4284C268.3 66.3873 264.314 68.668 261.708 71.0733C260.235 72.4331 259.231 73.8076 258.515 75.134ZM26.2378 59.7026C27.7848 55.9461 29.5517 51.7027 31.5686 46.8586C32.065 45.6664 32.5766 44.4378 33.1037 43.1712C35.8299 36.6205 38.9712 29.0565 42.5866 20.2524C46.6646 30.2709 50.1333 38.6484 53.09 45.7894C55.2651 51.0427 57.1631 55.6267 58.8228 59.7026H26.2378Z" fill="url(#paint0_linear_267_2857)" stroke="#0F564F" stroke-width="3"/>
<defs>
<linearGradient id="paint0_linear_267_2857" x1="47.2029" y1="21.1656" x2="91.8494" y2="129.349" gradientUnits="userSpaceOnUse">
<stop offset="0.1" stop-color="#072B27"/>
<stop offset="0.2" stop-color="#0F564F"/>
<stop offset="0.3" stop-color="#26D9C7"/>
<stop offset="0.4" stop-color="#93ECE2"/>
<stop offset="0.5" stop-color="#D4F7F4"/>
<stop offset="0.6" stop-color="#93ECE2"/>
<stop offset="0.7" stop-color="#26D9C7"/>
<stop offset="0.8" stop-color="#0F564F"/>
<stop offset="0.9" stop-color="#072B27"/>
</linearGradient>
</defs>
</svg>
